<?xml version="1.0" encoding="UTF-8" standalone="no"?>
<!-- Created with Inkscape (http://www.inkscape.org/) -->

<svg
   xmlns:dc="http://purl.org/dc/elements/1.1/"
   xmlns:cc="http://creativecommons.org/ns#"
   xmlns:rdf="http://www.w3.org/1999/02/22-rdf-syntax-ns#"
   xmlns:svg="http://www.w3.org/2000/svg"
   xmlns="http://www.w3.org/2000/svg"
   xmlns:sodipodi="http://sodipodi.sourceforge.net/DTD/sodipodi-0.dtd"
   xmlns:inkscape="http://www.inkscape.org/namespaces/inkscape"
   version="1.1"
   id="svg4572"
   xml:space="preserve"
   width="793.70135"
   height="1122.52"
   viewBox="0 0 793.70135 1122.52"
   sodipodi:docname="Tesis_fmt.svg"
   inkscape:version="0.92.1 r15371"><metadata
     id="metadata4578"><rdf:RDF><cc:Work
         rdf:about=""><dc:format>image/svg+xml</dc:format><dc:type
           rdf:resource="http://purl.org/dc/dcmitype/StillImage" /><dc:title></dc:title></cc:Work></rdf:RDF></metadata><defs
     id="defs4576" /><sodipodi:namedview
     pagecolor="#ffffff"
     bordercolor="#666666"
     borderopacity="1"
     objecttolerance="10"
     gridtolerance="10"
     guidetolerance="10"
     inkscape:pageopacity="0"
     inkscape:pageshadow="2"
     inkscape:window-width="1366"
     inkscape:window-height="705"
     id="namedview4574"
     showgrid="false"
     inkscape:zoom="0.59465202"
     inkscape:cx="635.61764"
     inkscape:cy="681.85123"
     inkscape:window-x="-8"
     inkscape:window-y="-8"
     inkscape:window-maximized="1"
     inkscape:current-layer="g4580" /><g
     id="g4580"
     inkscape:groupmode="layer"
     inkscape:label="Tesis_fmt"
     transform="matrix(1.3333333,0,0,-1.3333333,0,1122.52)"><g
       transform="translate(173.8143,423.69673)"
       id="g4598"
       inkscape:export-xdpi="510.16"
       inkscape:export-ydpi="510.16"><g
         id="g4600"><g
           id="g4602"><path
             inkscape:connector-curvature="0"
             id="path4604"
             style="fill:none;stroke:#bfbfbf;stroke-width:0.79701;stroke-linecap:butt;stroke-linejoin:miter;stroke-miterlimit:10;stroke-dasharray:none;stroke-opacity:1"
             d="M -14.17424,141.73404 V -14.17424 h 155.90828" /></g><g
           id="g4606"><path
             inkscape:connector-curvature="0"
             id="path4608"
             style="fill:#0000ff;fill-opacity:0.2;fill-rule:nonzero;stroke:none"
             d="m 130.80595,3.6246 c 0,7.82833 -6.34593,14.17424 -14.17425,14.17424 -7.82832,0 -14.17426,-6.34591 -14.17426,-14.17424 0,-7.8283 6.34594,-14.17424 14.17426,-14.17424 7.82832,0 14.17425,6.34594 14.17425,14.17424 z" /></g><g
           id="g4610"><path
             inkscape:connector-curvature="0"
             id="path4612"
             style="fill:#0000ff;fill-opacity:0.2;fill-rule:nonzero;stroke:none"
             d="m 114.83444,37.98973 c 0,7.82832 -6.34593,14.17426 -14.17424,14.17426 -7.82832,0 -14.17425,-6.34594 -14.17425,-14.17426 0,-7.82831 6.34593,-14.17424 14.17425,-14.17424 7.82831,0 14.17424,6.34593 14.17424,14.17424 z" /></g><g
           id="g4614"><path
             inkscape:connector-curvature="0"
             id="path4616"
             style="fill:#0000ff;fill-opacity:0.2;fill-rule:nonzero;stroke:none"
             d="m 151.06601,20.63417 c 0,7.82833 -6.34593,14.17426 -14.17426,14.17426 -7.82832,0 -14.17424,-6.34593 -14.17424,-14.17426 0,-7.82832 6.34592,-14.17425 14.17424,-14.17425 7.82833,0 14.17426,6.34593 14.17426,14.17425 z" /></g><g
           id="g4618"><path
             inkscape:connector-curvature="0"
             id="path4620"
             style="fill:#0000ff;fill-opacity:0.2;fill-rule:nonzero;stroke:none"
             d="m 25.31638,111.96028 c 0,7.82832 -6.34594,14.17426 -14.17424,14.17426 -7.82833,0 -14.17424,-6.34594 -14.17424,-14.17426 0,-7.82832 6.34591,-14.17424 14.17424,-14.17424 7.8283,0 14.17424,6.34592 14.17424,14.17424 z" /></g><g
           id="g4622"><path
             inkscape:connector-curvature="0"
             id="path4624"
             style="fill:#0000ff;fill-opacity:0.2;fill-rule:nonzero;stroke:none"
             d="m 21.77606,64.22105 c 0,7.82833 -6.34593,14.17426 -14.17424,14.17426 -7.82831,0 -14.17424,-6.34593 -14.17424,-14.17426 0,-7.82832 6.34593,-14.17425 14.17424,-14.17425 7.82831,0 14.17424,6.34593 14.17424,14.17425 z" /></g><g
           id="g4626"><path
             inkscape:connector-curvature="0"
             id="path4628"
             style="fill:#0000ff;fill-opacity:0.2;fill-rule:nonzero;stroke:none"
             d="m 95.6687,63.9139 c 0,7.82832 -6.34593,14.17425 -14.17424,14.17425 -7.82832,0 -14.17426,-6.34593 -14.17426,-14.17425 0,-7.82833 6.34594,-14.17425 14.17426,-14.17425 7.82831,0 14.17424,6.34592 14.17424,14.17425 z" /></g><g
           id="g4630"><path
             inkscape:connector-curvature="0"
             id="path4632"
             style="fill:#0000ff;fill-opacity:0.2;fill-rule:nonzero;stroke:none"
             d="m 69.13684,56.35532 c 0,7.82832 -6.34593,14.17425 -14.17424,14.17425 -7.82832,0 -14.17425,-6.34593 -14.17425,-14.17425 0,-7.82831 6.34593,-14.17424 14.17425,-14.17424 7.82831,0 14.17424,6.34593 14.17424,14.17424 z" /></g><g
           id="g4634"><path
             inkscape:connector-curvature="0"
             id="path4636"
             style="fill:#0000ff;fill-opacity:0.2;fill-rule:nonzero;stroke:none"
             d="m 86.51399,7.50879 c 0,7.82831 -6.34593,14.17424 -14.17424,14.17424 -7.82832,0 -14.17425,-6.34593 -14.17425,-14.17424 0,-7.82831 6.34593,-14.17424 14.17425,-14.17424 7.82831,0 14.17424,6.34593 14.17424,14.17424 z" /></g><g
           id="g4638"><path
             inkscape:connector-curvature="0"
             id="path4640"
             style="fill:#0000ff;fill-opacity:0.2;fill-rule:nonzero;stroke:none"
             d="m 66.07014,5.69861 c 0,7.82832 -6.34593,14.17424 -14.17424,14.17424 -7.82832,0 -14.17425,-6.34592 -14.17425,-14.17424 0,-7.82831 6.34593,-14.17424 14.17425,-14.17424 7.82831,0 14.17424,6.34593 14.17424,14.17424 z" /></g><g
           id="g4642"><path
             inkscape:connector-curvature="0"
             id="path4644"
             style="fill:#0000ff;fill-opacity:0.2;fill-rule:nonzero;stroke:none"
             d="m 45.06177,35.07233 c 0,7.82832 -6.34592,14.17424 -14.17424,14.17424 -7.82833,0 -14.17426,-6.34592 -14.17426,-14.17424 0,-7.82833 6.34593,-14.17426 14.17426,-14.17426 7.82832,0 14.17424,6.34593 14.17424,14.17426 z" /></g><g
           id="g4646"><path
             inkscape:connector-curvature="0"
             id="path4648"
             style="fill:#0000ff;fill-opacity:0.2;fill-rule:nonzero;stroke:none"
             d="m 105.29262,25.75542 c 0,7.8283 -6.34593,14.17424 -14.17424,14.17424 -7.82833,0 -14.17426,-6.34594 -14.17426,-14.17424 0,-7.82832 6.34593,-14.17426 14.17426,-14.17426 7.82831,0 14.17424,6.34594 14.17424,14.17426 z" /></g><g
           id="g4650"><path
             inkscape:connector-curvature="0"
             id="path4652"
             style="fill:#0000ff;fill-opacity:0.2;fill-rule:nonzero;stroke:none"
             d="m 120.87267,94.52467 c 0,7.82833 -6.34592,14.17426 -14.17424,14.17426 -7.82833,0 -14.17426,-6.34593 -14.17426,-14.17426 0,-7.8283 6.34593,-14.17424 14.17426,-14.17424 7.82832,0 14.17424,6.34594 14.17424,14.17424 z" /></g><g
           id="g4654"><path
             inkscape:connector-curvature="0"
             id="path4656"
             style="fill:#0000ff;fill-opacity:0.2;fill-rule:nonzero;stroke:none"
             d="m 27.24985,82.48494 c 0,7.82832 -6.34593,14.17426 -14.17426,14.17426 -7.82832,0 -14.17422,-6.34594 -14.17422,-14.17426 0,-7.82832 6.3459,-14.17426 14.17422,-14.17426 7.82833,0 14.17426,6.34594 14.17426,14.17426 z" /></g><g
           id="g4658"><path
             inkscape:connector-curvature="0"
             id="path4660"
             style="fill:#0000ff;fill-opacity:0.2;fill-rule:nonzero;stroke:none"
             d="m 57.7308,141.24956 c 0,7.82832 -6.34593,14.17424 -14.17425,14.17424 -7.82832,0 -14.17425,-6.34592 -14.17425,-14.17424 0,-7.82833 6.34593,-14.17426 14.17425,-14.17426 7.82832,0 14.17425,6.34593 14.17425,14.17426 z" /></g><g
           id="g4662"><path
             inkscape:connector-curvature="0"
             id="path4664"
             style="fill:#0000ff;fill-opacity:0.2;fill-rule:nonzero;stroke:none"
             d="m 154.78586,88.30692 c 0,7.82832 -6.34593,14.17425 -14.17426,14.17425 -7.82832,0 -14.17425,-6.34593 -14.17425,-14.17425 0,-7.82833 6.34593,-14.17424 14.17425,-14.17424 7.82833,0 14.17426,6.34591 14.17426,14.17424 z" /></g><g
           id="g4666"><path
             inkscape:connector-curvature="0"
             id="path4668"
             style="fill:#0000ff;fill-opacity:0.2;fill-rule:nonzero;stroke:none"
             d="m 31.03886,108.60156 c 0,7.82831 -6.34593,14.17424 -14.17425,14.17424 -7.82832,0 -14.17424,-6.34593 -14.17424,-14.17424 0,-7.82832 6.34592,-14.17426 14.17424,-14.17426 7.82832,0 14.17425,6.34594 14.17425,14.17426 z" /></g><g
           id="g4670"><path
             inkscape:connector-curvature="0"
             id="path4672"
             style="fill:#0000ff;fill-opacity:0.2;fill-rule:nonzero;stroke:none"
             d="m 88.64645,124.34814 c 0,7.82833 -6.34593,14.17426 -14.17425,14.17426 -7.82831,0 -14.17424,-6.34593 -14.17424,-14.17426 0,-7.82832 6.34593,-14.17424 14.17424,-14.17424 7.82832,0 14.17425,6.34592 14.17425,14.17424 z" /></g><g
           id="g4674"><path
             inkscape:connector-curvature="0"
             id="path4676"
             style="fill:#0000ff;fill-opacity:0.2;fill-rule:nonzero;stroke:none"
             d="m 20.02426,44.55783 c 0,7.82832 -6.34592,14.17424 -14.17424,14.17424 -7.82831,0 -14.17424,-6.34592 -14.17424,-14.17424 0,-7.82833 6.34593,-14.17425 14.17424,-14.17425 7.82832,0 14.17424,6.34592 14.17424,14.17425 z" /></g><g
           id="g4678"><path
             inkscape:connector-curvature="0"
             id="path4680"
             style="fill:#0000ff;fill-opacity:0.2;fill-rule:nonzero;stroke:none"
             d="m 147.24666,6.39722 c 0,7.8283 -6.34593,14.17424 -14.17426,14.17424 -7.8283,0 -14.17424,-6.34594 -14.17424,-14.17424 0,-7.82831 6.34594,-14.17424 14.17424,-14.17424 7.82833,0 14.17426,6.34593 14.17426,14.17424 z" /></g><g
           id="g4682"><path
             inkscape:connector-curvature="0"
             id="path4684"
             style="fill:#0000ff;fill-opacity:0.2;fill-rule:nonzero;stroke:none"
             d="m 23.69432,139.41125 c 0,7.82833 -6.34592,14.17426 -14.17424,14.17426 -7.82832,0 -14.17424,-6.34593 -14.17424,-14.17426 0,-7.82832 6.34592,-14.17425 14.17424,-14.17425 7.82832,0 14.17424,6.34593 14.17424,14.17425 z" /></g><g
           id="g4686"><path
             inkscape:connector-curvature="0"
             id="path4688"
             style="fill:#0000ff;fill-opacity:0.2;fill-rule:nonzero;stroke:none"
             d="m 18.3893,120.43364 c 0,7.82832 -6.34593,14.17424 -14.17426,14.17424 -7.82831,0 -14.17422,-6.34592 -14.17422,-14.17424 0,-7.82832 6.34591,-14.17426 14.17422,-14.17426 7.82833,0 14.17426,6.34594 14.17426,14.17426 z" /></g><g
           id="g4690"><path
             inkscape:connector-curvature="0"
             id="path4692"
             style="fill:#0000ff;fill-opacity:0.2;fill-rule:nonzero;stroke:none"
             d="m 32.782,48.86592 c 0,7.82831 -6.34593,14.17424 -14.17426,14.17424 -7.82832,0 -14.17424,-6.34593 -14.17424,-14.17424 0,-7.82832 6.34592,-14.17425 14.17424,-14.17425 7.82833,0 14.17426,6.34593 14.17426,14.17425 z" /></g><g
           id="g4694"><path
             inkscape:connector-curvature="0"
             id="path4696"
             style="fill:#0000ff;fill-opacity:0.2;fill-rule:nonzero;stroke:none"
             d="m 130.25009,105.90906 c 0,7.82832 -6.34593,14.17425 -14.17425,14.17425 -7.82833,0 -14.17424,-6.34593 -14.17424,-14.17425 0,-7.82833 6.34591,-14.17424 14.17424,-14.17424 7.82832,0 14.17425,6.34591 14.17425,14.17424 z" /></g><g
           id="g4698"><path
             inkscape:connector-curvature="0"
             id="path4700"
             style="fill:#0000ff;fill-opacity:0.2;fill-rule:nonzero;stroke:none"
             d="m 141.26468,65.9274 c 0,7.82832 -6.34593,14.17425 -14.17424,14.17425 -7.82832,0 -14.17426,-6.34593 -14.17426,-14.17425 0,-7.82832 6.34594,-14.17424 14.17426,-14.17424 7.82831,0 14.17424,6.34592 14.17424,14.17424 z" /></g><g
           id="g4702"><path
             inkscape:connector-curvature="0"
             id="path4704"
             style="fill:#0000ff;fill-opacity:0.2;fill-rule:nonzero;stroke:none"
             d="m 27.76237,14.41428 c 0,7.82832 -6.34593,14.17425 -14.17424,14.17425 -7.82832,0 -14.17423,-6.34593 -14.17423,-14.17425 0,-7.82831 6.34591,-14.17424 14.17423,-14.17424 7.82831,0 14.17424,6.34593 14.17424,14.17424 z" /></g><g
           id="g4706"><path
             inkscape:connector-curvature="0"
             id="path4708"
             style="fill:#0000ff;fill-opacity:0.2;fill-rule:nonzero;stroke:none"
             d="m 112.75177,22.35997 c 0,7.82833 -6.34593,14.17426 -14.17424,14.17426 -7.82833,0 -14.17426,-6.34593 -14.17426,-14.17426 0,-7.82831 6.34593,-14.17424 14.17426,-14.17424 7.82831,0 14.17424,6.34593 14.17424,14.17424 z" /></g><g
           id="g4710"><path
             inkscape:connector-curvature="0"
             id="path4712"
             style="fill:#0000ff;fill-opacity:0.2;fill-rule:nonzero;stroke:none"
             d="m 87.42018,103.31598 c 0,7.82832 -6.34593,14.17425 -14.17424,14.17425 -7.82832,0 -14.17425,-6.34593 -14.17425,-14.17425 0,-7.82832 6.34593,-14.17424 14.17425,-14.17424 7.82831,0 14.17424,6.34592 14.17424,14.17424 z" /></g><g
           id="g4714"><path
             inkscape:connector-curvature="0"
             id="path4716"
             style="fill:#0000ff;fill-opacity:0.2;fill-rule:nonzero;stroke:none"
             d="m 77.00684,80.99918 c 0,7.82832 -6.34594,14.17424 -14.17426,14.17424 -7.82832,0 -14.17425,-6.34592 -14.17425,-14.17424 0,-7.82833 6.34593,-14.17426 14.17425,-14.17426 7.82832,0 14.17426,6.34593 14.17426,14.17426 z" /></g><g
           id="g4718"><path
             inkscape:connector-curvature="0"
             id="path4720"
             style="fill:#0000ff;fill-opacity:0.2;fill-rule:nonzero;stroke:none"
             d="m 44.80653,112.56145 c 0,7.82832 -6.34593,14.17424 -14.17425,14.17424 -7.82831,0 -14.17424,-6.34592 -14.17424,-14.17424 0,-7.82833 6.34593,-14.17426 14.17424,-14.17426 7.82832,0 14.17425,6.34593 14.17425,14.17426 z" /></g><g
           id="g4722"><path
             inkscape:connector-curvature="0"
             id="path4724"
             style="fill:#0000ff;fill-opacity:0.2;fill-rule:nonzero;stroke:none"
             d="m 59.72476,83.69821 c 0,7.82833 -6.34593,14.17424 -14.17424,14.17424 -7.82832,0 -14.17425,-6.34591 -14.17425,-14.17424 0,-7.82832 6.34593,-14.17425 14.17425,-14.17425 7.82831,0 14.17424,6.34593 14.17424,14.17425 z" /></g><g
           id="g4726"><path
             inkscape:connector-curvature="0"
             id="path4728"
             style="fill:#0000ff;fill-opacity:0.2;fill-rule:nonzero;stroke:none"
             d="m 139.91733,107.21317 c 0,7.8283 -6.34593,14.17423 -14.17424,14.17423 -7.82833,0 -14.17426,-6.34593 -14.17426,-14.17423 0,-7.82833 6.34593,-14.17426 14.17426,-14.17426 7.82831,0 14.17424,6.34593 14.17424,14.17426 z" /></g><g
           id="g4730"><path
             inkscape:connector-curvature="0"
             id="path4732"
             style="fill:#0000ff;fill-opacity:0.2;fill-rule:nonzero;stroke:none"
             d="m 84.1307,106.16423 c 0,7.82831 -6.34593,14.17424 -14.17425,14.17424 -7.82831,0 -14.17424,-6.34593 -14.17424,-14.17424 0,-7.82833 6.34593,-14.17426 14.17424,-14.17426 7.82832,0 14.17425,6.34593 14.17425,14.17426 z" /></g><g
           id="g4734"><path
             inkscape:connector-curvature="0"
             id="path4736"
             style="fill:#0000ff;fill-opacity:0.2;fill-rule:nonzero;stroke:none"
             d="m 39.34575,140.92735 c 0,7.82831 -6.34593,14.17425 -14.17424,14.17425 -7.82832,0 -14.17426,-6.34594 -14.17426,-14.17425 0,-7.82832 6.34594,-14.17425 14.17426,-14.17425 7.82831,0 14.17424,6.34593 14.17424,14.17425 z" /></g><g
           id="g4738"><path
             inkscape:connector-curvature="0"
             id="path4740"
             style="fill:#0000ff;fill-opacity:0.2;fill-rule:nonzero;stroke:none"
             d="m 42.77365,83.9707 c 0,7.82833 -6.34593,14.17426 -14.17425,14.17426 -7.82833,0 -14.17424,-6.34593 -14.17424,-14.17426 0,-7.82832 6.34591,-14.17424 14.17424,-14.17424 7.82832,0 14.17425,6.34592 14.17425,14.17424 z" /></g><g
           id="g4742"><path
             inkscape:connector-curvature="0"
             id="path4744"
             style="fill:#0000ff;fill-opacity:0.2;fill-rule:nonzero;stroke:none"
             d="m 49.4477,95.593 c 0,7.82831 -6.34594,14.17424 -14.17425,14.17424 -7.82832,0 -14.17425,-6.34593 -14.17425,-14.17424 0,-7.82832 6.34593,-14.17425 14.17425,-14.17425 7.82831,0 14.17425,6.34593 14.17425,14.17425 z" /></g><g
           id="g4746"><path
             inkscape:connector-curvature="0"
             id="path4748"
             style="fill:#0000ff;fill-opacity:0.2;fill-rule:nonzero;stroke:none"
             d="m 117.55293,114.66791 c 0,7.82832 -6.34591,14.17425 -14.17423,14.17425 -7.82833,0 -14.17426,-6.34593 -14.17426,-14.17425 0,-7.82833 6.34593,-14.17426 14.17426,-14.17426 7.82832,0 14.17423,6.34593 14.17423,14.17426 z" /></g><g
           id="g4750"><path
             inkscape:connector-curvature="0"
             id="path4752"
             style="fill:#0000ff;fill-opacity:0.2;fill-rule:nonzero;stroke:none"
             d="m 142.95377,118.85924 c 0,7.82832 -6.34592,14.17426 -14.17424,14.17426 -7.82833,0 -14.17426,-6.34594 -14.17426,-14.17426 0,-7.82831 6.34593,-14.17424 14.17426,-14.17424 7.82832,0 14.17424,6.34593 14.17424,14.17424 z" /></g><g
           id="g4754"><path
             inkscape:connector-curvature="0"
             id="path4756"
             style="fill:#0000ff;fill-opacity:0.2;fill-rule:nonzero;stroke:none"
             d="m 85.04123,55.49239 c 0,7.82832 -6.34593,14.17424 -14.17426,14.17424 -7.8283,0 -14.17424,-6.34592 -14.17424,-14.17424 0,-7.82833 6.34594,-14.17426 14.17424,-14.17426 7.82833,0 14.17426,6.34593 14.17426,14.17426 z" /></g><g
           id="g4758"><path
             inkscape:connector-curvature="0"
             id="path4760"
             style="fill:#0000ff;fill-opacity:0.2;fill-rule:nonzero;stroke:none"
             d="m 110.29498,63.73224 c 0,7.82831 -6.34593,14.17424 -14.17425,14.17424 -7.82831,0 -14.17424,-6.34593 -14.17424,-14.17424 0,-7.82832 6.34593,-14.17426 14.17424,-14.17426 7.82832,0 14.17425,6.34594 14.17425,14.17426 z" /></g><g
           id="g4762"><path
             inkscape:connector-curvature="0"
             id="path4764"
             style="fill:#0000ff;fill-opacity:0.2;fill-rule:nonzero;stroke:none"
             d="m 78.41476,29.53796 c 0,7.82833 -6.34593,14.17426 -14.17425,14.17426 -7.82832,0 -14.17424,-6.34593 -14.17424,-14.17426 0,-7.8283 6.34592,-14.17424 14.17424,-14.17424 7.82832,0 14.17425,6.34594 14.17425,14.17424 z" /></g><g
           id="g4766"><path
             inkscape:connector-curvature="0"
             id="path4768"
             style="fill:#0000ff;fill-opacity:0.2;fill-rule:nonzero;stroke:none"
             d="m 27.84021,98.74406 c 0,7.82833 -6.34593,14.17424 -14.17424,14.17424 -7.82832,0 -14.17424,-6.34591 -14.17424,-14.17424 0,-7.82832 6.34592,-14.17425 14.17424,-14.17425 7.82831,0 14.17424,6.34593 14.17424,14.17425 z" /></g><g
           id="g4770"><path
             inkscape:connector-curvature="0"
             id="path4772"
             style="fill:#0000ff;fill-opacity:0.2;fill-rule:nonzero;stroke:none"
             d="m 21.25487,90.92812 c 0,7.82832 -6.34593,14.17425 -14.17426,14.17425 -7.82829,0 -14.17422,-6.34593 -14.17422,-14.17425 0,-7.82832 6.34593,-14.17424 14.17422,-14.17424 7.82833,0 14.17426,6.34592 14.17426,14.17424 z" /></g><g
           id="g4774"><path
             inkscape:connector-curvature="0"
             id="path4776"
             style="fill:#0000ff;fill-opacity:0.2;fill-rule:nonzero;stroke:none"
             d="m 136.94147,112.84048 c 0,7.82832 -6.34593,14.17424 -14.17426,14.17424 -7.82831,0 -14.17424,-6.34592 -14.17424,-14.17424 0,-7.82832 6.34593,-14.17425 14.17424,-14.17425 7.82833,0 14.17426,6.34593 14.17426,14.17425 z" /></g><g
           id="g4778"><path
             inkscape:connector-curvature="0"
             id="path4780"
             style="fill:#0000ff;fill-opacity:0.2;fill-rule:nonzero;stroke:none"
             d="m 17.98271,41.29868 c 0,7.82832 -6.34591,14.17425 -14.17424,14.17425 -7.82831,0 -14.17424,-6.34593 -14.17424,-14.17425 0,-7.82833 6.34593,-14.17426 14.17424,-14.17426 7.82833,0 14.17424,6.34593 14.17424,14.17426 z" /></g><g
           id="g4782"><path
             inkscape:connector-curvature="0"
             id="path4784"
             style="fill:#0000ff;fill-opacity:0.2;fill-rule:nonzero;stroke:none"
             d="m 45.35806,13.15343 c 0,7.82832 -6.34593,14.17425 -14.17426,14.17425 -7.82832,0 -14.17423,-6.34593 -14.17423,-14.17425 0,-7.82833 6.34591,-14.17423 14.17423,-14.17423 7.82833,0 14.17426,6.3459 14.17426,14.17423 z" /></g><g
           id="g4786"><path
             inkscape:connector-curvature="0"
             id="path4788"
             style="fill:#0000ff;fill-opacity:0.2;fill-rule:nonzero;stroke:none"
             d="m 83.59659,88.66591 c 0,7.82832 -6.34593,14.17425 -14.17426,14.17425 -7.82832,0 -14.17423,-6.34593 -14.17423,-14.17425 0,-7.82832 6.34591,-14.17424 14.17423,-14.17424 7.82833,0 14.17426,6.34592 14.17426,14.17424 z" /></g><g
           id="g4790"><path
             inkscape:connector-curvature="0"
             id="path4792"
             style="fill:#0000ff;fill-opacity:0.2;fill-rule:nonzero;stroke:none"
             d="m 49.48662,52.83234 c 0,7.82832 -6.34593,14.17425 -14.17426,14.17425 -7.82832,0 -14.17424,-6.34593 -14.17424,-14.17425 0,-7.82833 6.34592,-14.17424 14.17424,-14.17424 7.82833,0 14.17426,6.34591 14.17426,14.17424 z" /></g><g
           id="g4794"><path
             inkscape:connector-curvature="0"
             id="path4796"
             style="fill:#0000ff;fill-opacity:0.2;fill-rule:nonzero;stroke:none"
             d="m 32.7712,105.9653 c 0,7.82832 -6.34592,14.17426 -14.17425,14.17426 -7.82832,0 -14.17425,-6.34594 -14.17425,-14.17426 0,-7.8283 6.34593,-14.17424 14.17425,-14.17424 7.82833,0 14.17425,6.34594 14.17425,14.17424 z" /></g><g
           id="g4798"><path
             inkscape:connector-curvature="0"
             id="path4800"
             style="fill:#0000ff;fill-opacity:0.2;fill-rule:nonzero;stroke:none"
             d="m 110.38148,40.88564 c 0,7.82832 -6.34593,14.17425 -14.17425,14.17425 -7.82833,0 -14.17424,-6.34593 -14.17424,-14.17425 0,-7.82833 6.34591,-14.17424 14.17424,-14.17424 7.82832,0 14.17425,6.34591 14.17425,14.17424 z" /></g><g
           id="g4802"><path
             inkscape:connector-curvature="0"
             id="path4804"
             style="fill:#0000ff;fill-opacity:0.2;fill-rule:nonzero;stroke:none"
             d="m 117.49457,94.95284 c 0,7.82832 -6.34593,14.17425 -14.17426,14.17425 -7.82832,0 -14.17424,-6.34593 -14.17424,-14.17425 0,-7.82831 6.34592,-14.17424 14.17424,-14.17424 7.82833,0 14.17426,6.34593 14.17426,14.17424 z" /></g></g></g><g
       id="g4808"
       transform="translate(435.78956,437.13762)"
       inkscape:export-xdpi="552.75928"
       inkscape:export-ydpi="552.75928"><g
         id="g4810"><g
           id="g4812"><path
             d="M -14.17424,141.73404 V -14.17424 h 155.90828"
             style="fill:none;stroke:#bfbfbf;stroke-width:0.79701;stroke-linecap:butt;stroke-linejoin:miter;stroke-miterlimit:10;stroke-dasharray:none;stroke-opacity:1"
             id="path4814"
             inkscape:connector-curvature="0" /></g><g
           id="g4816"><path
             d="M 49.66182,53.5957 67.1688,86.44482"
             style="fill:none;stroke:#0000ff;stroke-width:0.3985;stroke-linecap:butt;stroke-linejoin:miter;stroke-miterlimit:10;stroke-dasharray:none;stroke-opacity:1"
             id="path4818"
             inkscape:connector-curvature="0" /></g><g
           id="g4820"><path
             d="M 29.16818,15.14526 78.817,119.25935"
             style="fill:none;stroke:#0000ff;stroke-width:0.3985;stroke-linecap:butt;stroke-linejoin:miter;stroke-miterlimit:10;stroke-dasharray:none;stroke-opacity:1"
             id="path4822"
             inkscape:connector-curvature="0" /></g><g
           id="g4824"><path
             d="M 81.00563,109.91866 36.56242,101.841"
             style="fill:none;stroke:#0000ff;stroke-width:0.3985;stroke-linecap:butt;stroke-linejoin:miter;stroke-miterlimit:10;stroke-dasharray:none;stroke-opacity:1"
             id="path4826"
             inkscape:connector-curvature="0" /></g><g
           id="g4828"><path
             d="m 131.94785,77.93468 -28.63399,62.61847"
             style="fill:none;stroke:#0000ff;stroke-width:0.3985;stroke-linecap:butt;stroke-linejoin:miter;stroke-miterlimit:10;stroke-dasharray:none;stroke-opacity:1"
             id="path4830"
             inkscape:connector-curvature="0" /></g><g
           id="g4832"><path
             d="M 134.99509,118.95654 38.4829,79.00954"
             style="fill:none;stroke:#0000ff;stroke-width:0.3985;stroke-linecap:butt;stroke-linejoin:miter;stroke-miterlimit:10;stroke-dasharray:none;stroke-opacity:1"
             id="path4834"
             inkscape:connector-curvature="0" /></g><g
           id="g4836"><path
             d="M 82.56064,35.02254 14.27374,28.83723"
             style="fill:none;stroke:#0000ff;stroke-width:0.3985;stroke-linecap:butt;stroke-linejoin:miter;stroke-miterlimit:10;stroke-dasharray:none;stroke-opacity:1"
             id="path4838"
             inkscape:connector-curvature="0" /></g><g
           id="g4840"><path
             d="M 104.40163,66.3491 53.34055,120.41852"
             style="fill:none;stroke:#0000ff;stroke-width:0.3985;stroke-linecap:butt;stroke-linejoin:miter;stroke-miterlimit:10;stroke-dasharray:none;stroke-opacity:1"
             id="path4842"
             inkscape:connector-curvature="0" /></g><g
           id="g4844"><path
             d="m 59.25981,70.78261 19.32794,59.04365"
             style="fill:none;stroke:#0000ff;stroke-width:0.3985;stroke-linecap:butt;stroke-linejoin:miter;stroke-miterlimit:10;stroke-dasharray:none;stroke-opacity:1"
             id="path4846"
             inkscape:connector-curvature="0" /></g><g
           id="g4848"><path
             d="m 62.44333,109.60938 70.73505,8.56858"
             style="fill:none;stroke:#0000ff;stroke-width:0.3985;stroke-linecap:butt;stroke-linejoin:miter;stroke-miterlimit:10;stroke-dasharray:none;stroke-opacity:1"
             id="path4850"
             inkscape:connector-curvature="0" /></g><g
           id="g4852"><path
             d="M 124.13403,119.23557 16.96844,41.87613"
             style="fill:none;stroke:#0000ff;stroke-width:0.3985;stroke-linecap:butt;stroke-linejoin:miter;stroke-miterlimit:10;stroke-dasharray:none;stroke-opacity:1"
             id="path4854"
             inkscape:connector-curvature="0" /></g><g
           id="g4856"><path
             d="M 63.59816,35.61078 74.53058,74.59763"
             style="fill:none;stroke:#0000ff;stroke-width:0.3985;stroke-linecap:butt;stroke-linejoin:miter;stroke-miterlimit:10;stroke-dasharray:none;stroke-opacity:1"
             id="path4858"
             inkscape:connector-curvature="0" /></g><g
           id="g4860"><path
             d="M 79.24957,6.10526 76.82083,113.97371"
             style="fill:none;stroke:#0000ff;stroke-width:0.3985;stroke-linecap:butt;stroke-linejoin:miter;stroke-miterlimit:10;stroke-dasharray:none;stroke-opacity:1"
             id="path4862"
             inkscape:connector-curvature="0" /></g><g
           id="g4864"><path
             d="M 26.78268,10.95834 58.3385,34.07097"
             style="fill:none;stroke:#0000ff;stroke-width:0.3985;stroke-linecap:butt;stroke-linejoin:miter;stroke-miterlimit:10;stroke-dasharray:none;stroke-opacity:1"
             id="path4866"
             inkscape:connector-curvature="0" /></g><g
           id="g4868"><path
             d="M 28.38307,96.87764 44.3805,96.83226"
             style="fill:none;stroke:#0000ff;stroke-width:0.3985;stroke-linecap:butt;stroke-linejoin:miter;stroke-miterlimit:10;stroke-dasharray:none;stroke-opacity:1"
             id="path4870"
             inkscape:connector-curvature="0" /></g><g
           id="g4872"><path
             d="M 51.82019,49.66615 45.07043,14.7884"
             style="fill:none;stroke:#0000ff;stroke-width:0.3985;stroke-linecap:butt;stroke-linejoin:miter;stroke-miterlimit:10;stroke-dasharray:none;stroke-opacity:1"
             id="path4874"
             inkscape:connector-curvature="0" /></g><g
           id="g4876"><path
             d="M 19.4079,14.80786 1.08344,90.21439"
             style="fill:none;stroke:#0000ff;stroke-width:0.3985;stroke-linecap:butt;stroke-linejoin:miter;stroke-miterlimit:10;stroke-dasharray:none;stroke-opacity:1"
             id="path4878"
             inkscape:connector-curvature="0" /></g><g
           id="g4880"><path
             d="M 12.53926,7.96082 8.5058,61.08511"
             style="fill:none;stroke:#0000ff;stroke-width:0.3985;stroke-linecap:butt;stroke-linejoin:miter;stroke-miterlimit:10;stroke-dasharray:none;stroke-opacity:1"
             id="path4882"
             inkscape:connector-curvature="0" /></g><g
           id="g4884"><path
             d="m 134.40897,121.21442 -4.87255,-78.9923"
             style="fill:none;stroke:#0000ff;stroke-width:0.3985;stroke-linecap:butt;stroke-linejoin:miter;stroke-miterlimit:10;stroke-dasharray:none;stroke-opacity:1"
             id="path4886"
             inkscape:connector-curvature="0" /></g><g
           id="g4888"><path
             d="M 100.31845,13.17076 21.93394,87.02661"
             style="fill:none;stroke:#0000ff;stroke-width:0.3985;stroke-linecap:butt;stroke-linejoin:miter;stroke-miterlimit:10;stroke-dasharray:none;stroke-opacity:1"
             id="path4890"
             inkscape:connector-curvature="0" /></g><g
           id="g4892"><path
             d="m 63.57657,46.45238 60.90779,77.58648"
             style="fill:none;stroke:#0000ff;stroke-width:0.3985;stroke-linecap:butt;stroke-linejoin:miter;stroke-miterlimit:10;stroke-dasharray:none;stroke-opacity:1"
             id="path4894"
             inkscape:connector-curvature="0" /></g><g
           id="g4896"><path
             d="M 128.65837,67.26175 23.93445,13.73734"
             style="fill:none;stroke:#0000ff;stroke-width:0.3985;stroke-linecap:butt;stroke-linejoin:miter;stroke-miterlimit:10;stroke-dasharray:none;stroke-opacity:1"
             id="path4898"
             inkscape:connector-curvature="0" /></g><g
           id="g4900"><path
             d="M 29.33685,39.05814 75.72006,89.60455"
             style="fill:none;stroke:#0000ff;stroke-width:0.3985;stroke-linecap:butt;stroke-linejoin:miter;stroke-miterlimit:10;stroke-dasharray:none;stroke-opacity:1"
             id="path4902"
             inkscape:connector-curvature="0" /></g><g
           id="g4904"><path
             d="m 60.62662,8.03006 71.88568,3.09908"
             style="fill:none;stroke:#0000ff;stroke-width:0.3985;stroke-linecap:butt;stroke-linejoin:miter;stroke-miterlimit:10;stroke-dasharray:none;stroke-opacity:1"
             id="path4906"
             inkscape:connector-curvature="0" /></g><g
           id="g4908"><path
             d="M 34.22018,74.26675 84.8899,91.29144"
             style="fill:none;stroke:#0000ff;stroke-width:0.3985;stroke-linecap:butt;stroke-linejoin:miter;stroke-miterlimit:10;stroke-dasharray:none;stroke-opacity:1"
             id="path4910"
             inkscape:connector-curvature="0" /></g><g
           id="g4912"><path
             d="M 61.5328,77.24261 122.41902,6.59401"
             style="fill:none;stroke:#0000ff;stroke-width:0.3985;stroke-linecap:butt;stroke-linejoin:miter;stroke-miterlimit:10;stroke-dasharray:none;stroke-opacity:1"
             id="path4914"
             inkscape:connector-curvature="0" /></g><g
           id="g4916"><path
             d="M 128.61511,26.01065 15.64922,31.09511"
             style="fill:none;stroke:#0000ff;stroke-width:0.3985;stroke-linecap:butt;stroke-linejoin:miter;stroke-miterlimit:10;stroke-dasharray:none;stroke-opacity:1"
             id="path4918"
             inkscape:connector-curvature="0" /></g><g
           id="g4920"><path
             d="M 81.21542,82.20378 31.90393,11.71524"
             style="fill:none;stroke:#0000ff;stroke-width:0.3985;stroke-linecap:butt;stroke-linejoin:miter;stroke-miterlimit:10;stroke-dasharray:none;stroke-opacity:1"
             id="path4922"
             inkscape:connector-curvature="0" /></g><g
           id="g4924"><path
             d="M 135.16808,40.82939 44.62274,60.24605"
             style="fill:none;stroke:#0000ff;stroke-width:0.3985;stroke-linecap:butt;stroke-linejoin:miter;stroke-miterlimit:10;stroke-dasharray:none;stroke-opacity:1"
             id="path4926"
             inkscape:connector-curvature="0" /></g><g
           id="g4928"><path
             d="m 66.13286,31.90613 54.96046,95.95209"
             style="fill:none;stroke:#0000ff;stroke-width:0.3985;stroke-linecap:butt;stroke-linejoin:miter;stroke-miterlimit:10;stroke-dasharray:none;stroke-opacity:1"
             id="path4930"
             inkscape:connector-curvature="0" /></g><g
           id="g4932"><path
             d="M 57.04306,74.18025 20.0935,116.37213"
             style="fill:none;stroke:#0000ff;stroke-width:0.3985;stroke-linecap:butt;stroke-linejoin:miter;stroke-miterlimit:10;stroke-dasharray:none;stroke-opacity:1"
             id="path4934"
             inkscape:connector-curvature="0" /></g><g
           id="g4936"><path
             d="M 17.70377,25.98466 1.13322,30.71011"
             style="fill:none;stroke:#0000ff;stroke-width:0.3985;stroke-linecap:butt;stroke-linejoin:miter;stroke-miterlimit:10;stroke-dasharray:none;stroke-opacity:1"
             id="path4938"
             inkscape:connector-curvature="0" /></g><g
           id="g4940"><path
             d="M 0.01945,118.71004 66.05714,59.73564"
             style="fill:none;stroke:#0000ff;stroke-width:0.3985;stroke-linecap:butt;stroke-linejoin:miter;stroke-miterlimit:10;stroke-dasharray:none;stroke-opacity:1"
             id="path4942"
             inkscape:connector-curvature="0" /></g><g
           id="g4944"><path
             d="M 80.61426,64.12802 76.3818,95.24046"
             style="fill:none;stroke:#0000ff;stroke-width:0.3985;stroke-linecap:butt;stroke-linejoin:miter;stroke-miterlimit:10;stroke-dasharray:none;stroke-opacity:1"
             id="path4946"
             inkscape:connector-curvature="0" /></g><g
           id="g4948"><path
             d="M 107.61754,29.59634 29.28714,58.7754"
             style="fill:none;stroke:#0000ff;stroke-width:0.3985;stroke-linecap:butt;stroke-linejoin:miter;stroke-miterlimit:10;stroke-dasharray:none;stroke-opacity:1"
             id="path4950"
             inkscape:connector-curvature="0" /></g><g
           id="g4952"><path
             d="M 21.88857,46.27718 6.83405,14.46187"
             style="fill:none;stroke:#0000ff;stroke-width:0.3985;stroke-linecap:butt;stroke-linejoin:miter;stroke-miterlimit:10;stroke-dasharray:none;stroke-opacity:1"
             id="path4954"
             inkscape:connector-curvature="0" /></g><g
           id="g4956"><path
             d="m 55.6092,19.39711 22.4509,1.78638"
             style="fill:none;stroke:#0000ff;stroke-width:0.3985;stroke-linecap:butt;stroke-linejoin:miter;stroke-miterlimit:10;stroke-dasharray:none;stroke-opacity:1"
             id="path4958"
             inkscape:connector-curvature="0" /></g><g
           id="g4960"><path
             d="M 22.84659,26.05391 7.79214,3.75655"
             style="fill:none;stroke:#0000ff;stroke-width:0.3985;stroke-linecap:butt;stroke-linejoin:miter;stroke-miterlimit:10;stroke-dasharray:none;stroke-opacity:1"
             id="path4962"
             inkscape:connector-curvature="0" /></g><g
           id="g4964"><path
             d="m 33.65573,107.9874 21.87131,3.59002"
             style="fill:none;stroke:#0000ff;stroke-width:0.3985;stroke-linecap:butt;stroke-linejoin:miter;stroke-miterlimit:10;stroke-dasharray:none;stroke-opacity:1"
             id="path4966"
             inkscape:connector-curvature="0" /></g><g
           id="g4968"><path
             d="M 77.33345,5.22499 42.27191,10.4436"
             style="fill:none;stroke:#0000ff;stroke-width:0.3985;stroke-linecap:butt;stroke-linejoin:miter;stroke-miterlimit:10;stroke-dasharray:none;stroke-opacity:1"
             id="path4970"
             inkscape:connector-curvature="0" /></g><g
           id="g4972"><path
             d="m 21.92102,19.87726 33.22969,81.39497"
             style="fill:none;stroke:#0000ff;stroke-width:0.3985;stroke-linecap:butt;stroke-linejoin:miter;stroke-miterlimit:10;stroke-dasharray:none;stroke-opacity:1"
             id="path4974"
             inkscape:connector-curvature="0" /></g><g
           id="g4976"><path
             d="m 3.20935,15.86758 112.64591,91.82787"
             style="fill:none;stroke:#0000ff;stroke-width:0.3985;stroke-linecap:butt;stroke-linejoin:miter;stroke-miterlimit:10;stroke-dasharray:none;stroke-opacity:1"
             id="path4978"
             inkscape:connector-curvature="0" /></g><g
           id="g4980"><path
             d="M 141.64967,17.73834 78.51425,88.38042"
             style="fill:none;stroke:#0000ff;stroke-width:0.3985;stroke-linecap:butt;stroke-linejoin:miter;stroke-miterlimit:10;stroke-dasharray:none;stroke-opacity:1"
             id="path4982"
             inkscape:connector-curvature="0" /></g><g
           id="g4984"><path
             d="M 46.67082,12.87447 129.71164,80.9408"
             style="fill:none;stroke:#0000ff;stroke-width:0.3985;stroke-linecap:butt;stroke-linejoin:miter;stroke-miterlimit:10;stroke-dasharray:none;stroke-opacity:1"
             id="path4986"
             inkscape:connector-curvature="0" /></g><g
           id="g4988"><path
             d="M 45.93117,39.33708 71.95262,4.57837"
             style="fill:none;stroke:#0000ff;stroke-width:0.3985;stroke-linecap:butt;stroke-linejoin:miter;stroke-miterlimit:10;stroke-dasharray:none;stroke-opacity:1"
             id="path4990"
             inkscape:connector-curvature="0" /></g><g
           id="g4992"><path
             d="M 54.36348,9.28438 85.9085,115.14586"
             style="fill:none;stroke:#0000ff;stroke-width:0.3985;stroke-linecap:butt;stroke-linejoin:miter;stroke-miterlimit:10;stroke-dasharray:none;stroke-opacity:1"
             id="path4994"
             inkscape:connector-curvature="0" /></g><g
           id="g4996"><path
             d="M 37.23929,116.6165 68.76265,83.28297"
             style="fill:none;stroke:#0000ff;stroke-width:0.3985;stroke-linecap:butt;stroke-linejoin:miter;stroke-miterlimit:10;stroke-dasharray:none;stroke-opacity:1"
             id="path4998"
             inkscape:connector-curvature="0" /></g><g
           id="g5000"><path
             d="m 62.98833,39.18355 66.29074,70.63128"
             style="fill:none;stroke:#0000ff;stroke-width:0.3985;stroke-linecap:butt;stroke-linejoin:miter;stroke-miterlimit:10;stroke-dasharray:none;stroke-opacity:1"
             id="path5002"
             inkscape:connector-curvature="0" /></g><g
           id="g5004"><path
             d="m 120.79916,23.90852 6.79514,26.015"
             style="fill:none;stroke:#0000ff;stroke-width:0.3985;stroke-linecap:butt;stroke-linejoin:miter;stroke-miterlimit:10;stroke-dasharray:none;stroke-opacity:1"
             id="path5006"
             inkscape:connector-curvature="0" /></g><g
           id="g5008"><path
             d="M 92.23868,95.3335 74.23642,41.69879"
             style="fill:none;stroke:#0000ff;stroke-width:0.3985;stroke-linecap:butt;stroke-linejoin:miter;stroke-miterlimit:10;stroke-dasharray:none;stroke-opacity:1"
             id="path5010"
             inkscape:connector-curvature="0" /></g><g
           id="g5012"><path
             d="M 52.33273,120.76671 77.8849,44.7071"
             style="fill:none;stroke:#0000ff;stroke-width:0.3985;stroke-linecap:butt;stroke-linejoin:miter;stroke-miterlimit:10;stroke-dasharray:none;stroke-opacity:1"
             id="path5014"
             inkscape:connector-curvature="0" /></g></g></g></g></svg>