<?xml version="1.0" encoding="UTF-8"?>
<svg xmlns="http://www.w3.org/2000/svg" xmlns:xlink="http://www.w3.org/1999/xlink" width="194.664pt" height="161.787pt" viewBox="0 0 194.664 161.787" version="1.1">
<defs>
<clipPath id="clip1">
  <path d="M 0 0 L 194.664062 0 L 194.664062 161.785156 L 0 161.785156 Z M 0 0 "/>
</clipPath>
</defs>
<g id="surface1">
<g clip-path="url(#clip1)" clip-rule="nonzero">
<path style="fill:none;stroke-width:0.3985;stroke-linecap:butt;stroke-linejoin:miter;stroke:rgb(75%,75%,75%);stroke-opacity:1;stroke-miterlimit:10;" d="M -16.189781 -13.447937 L -16.189781 147.942688 L 178.07975 147.942688 L 178.07975 -13.447937 Z M -16.189781 -13.447937 " transform="matrix(1,0,0,-1,16.389,148.138)"/>
</g>
<path style="fill-rule:nonzero;fill:rgb(0%,0%,100%);fill-opacity:1;stroke-width:0.3985;stroke-linecap:butt;stroke-linejoin:miter;stroke:rgb(0%,0%,100%);stroke-opacity:1;stroke-miterlimit:10;" d="M 135.505531 0.00128125 C 135.505531 1.098938 134.611 1.993469 133.513344 1.993469 C 132.411781 1.993469 131.521156 1.098938 131.521156 0.00128125 C 131.521156 -1.100281 132.411781 -1.990906 133.513344 -1.990906 C 134.611 -1.990906 135.505531 -1.100281 135.505531 0.00128125 Z M 135.505531 0.00128125 " transform="matrix(1,0,0,-1,16.389,148.138)"/>
<path style="fill-rule:nonzero;fill:rgb(0%,0%,100%);fill-opacity:1;stroke-width:0.3985;stroke-linecap:butt;stroke-linejoin:miter;stroke:rgb(0%,0%,100%);stroke-opacity:1;stroke-miterlimit:10;" d="M 116.603188 33.583313 C 116.603188 34.680969 115.712563 35.5755 114.611 35.5755 C 113.509438 35.5755 112.618813 34.680969 112.618813 33.583313 C 112.618813 32.48175 113.509438 31.591125 114.611 31.591125 C 115.712563 31.591125 116.603188 32.48175 116.603188 33.583313 Z M 116.603188 33.583313 " transform="matrix(1,0,0,-1,16.389,148.138)"/>
<path style="fill-rule:nonzero;fill:rgb(0%,0%,100%);fill-opacity:1;stroke-width:0.3985;stroke-linecap:butt;stroke-linejoin:miter;stroke:rgb(0%,0%,100%);stroke-opacity:1;stroke-miterlimit:10;" d="M 159.478187 16.622375 C 159.478187 17.723938 158.587562 18.614563 157.486 18.614563 C 156.384437 18.614563 155.493812 17.723938 155.493812 16.622375 C 155.493812 15.520813 156.384437 14.630188 157.486 14.630188 C 158.587562 14.630188 159.478187 15.520813 159.478187 16.622375 Z M 159.478187 16.622375 " transform="matrix(1,0,0,-1,16.389,148.138)"/>
<path style="fill-rule:nonzero;fill:rgb(0%,0%,100%);fill-opacity:1;stroke-width:0.3985;stroke-linecap:butt;stroke-linejoin:miter;stroke:rgb(0%,0%,100%);stroke-opacity:1;stroke-miterlimit:10;" d="M 10.669594 105.868469 C 10.669594 106.970031 9.778969 107.860656 8.677406 107.860656 C 7.575844 107.860656 6.685219 106.970031 6.685219 105.868469 C 6.685219 104.766906 7.575844 103.876281 8.677406 103.876281 C 9.778969 103.876281 10.669594 104.766906 10.669594 105.868469 Z M 10.669594 105.868469 " transform="matrix(1,0,0,-1,16.389,148.138)"/>
<path style="fill-rule:nonzero;fill:rgb(0%,0%,100%);fill-opacity:1;stroke-width:0.3985;stroke-linecap:butt;stroke-linejoin:miter;stroke:rgb(0%,0%,100%);stroke-opacity:1;stroke-miterlimit:10;" d="M 6.482094 59.216125 C 6.482094 60.317688 5.591469 61.208313 4.489906 61.208313 C 3.388344 61.208313 2.497719 60.317688 2.497719 59.216125 C 2.497719 58.114563 3.388344 57.223938 4.489906 57.223938 C 5.591469 57.223938 6.482094 58.114563 6.482094 59.216125 Z M 6.482094 59.216125 " transform="matrix(1,0,0,-1,16.389,148.138)"/>
<path style="fill-rule:nonzero;fill:rgb(0%,0%,100%);fill-opacity:1;stroke-width:0.3985;stroke-linecap:butt;stroke-linejoin:miter;stroke:rgb(0%,0%,100%);stroke-opacity:1;stroke-miterlimit:10;" d="M 93.9235 58.915344 C 93.9235 60.016906 93.032875 60.907531 91.931313 60.907531 C 90.82975 60.907531 89.939125 60.016906 89.939125 58.915344 C 89.939125 57.817688 90.82975 56.923156 91.931313 56.923156 C 93.032875 56.923156 93.9235 57.817688 93.9235 58.915344 Z M 93.9235 58.915344 " transform="matrix(1,0,0,-1,16.389,148.138)"/>
<path style="fill-rule:nonzero;fill:rgb(0%,0%,100%);fill-opacity:1;stroke-width:0.3985;stroke-linecap:butt;stroke-linejoin:miter;stroke:rgb(0%,0%,100%);stroke-opacity:1;stroke-miterlimit:10;" d="M 62.525063 51.528625 C 62.525063 52.630188 61.634438 53.524719 60.532875 53.524719 C 59.431313 53.524719 58.540688 52.630188 58.540688 51.528625 C 58.540688 50.430969 59.431313 49.536438 60.532875 49.536438 C 61.634438 49.536438 62.525063 50.430969 62.525063 51.528625 Z M 62.525063 51.528625 " transform="matrix(1,0,0,-1,16.389,148.138)"/>
<path style="fill-rule:nonzero;fill:rgb(0%,0%,100%);fill-opacity:1;stroke-width:0.3985;stroke-linecap:butt;stroke-linejoin:miter;stroke:rgb(0%,0%,100%);stroke-opacity:1;stroke-miterlimit:10;" d="M 83.091469 3.798156 C 83.091469 4.895813 82.196938 5.790344 81.095375 5.790344 C 79.997719 5.790344 79.103188 4.895813 79.103188 3.798156 C 79.103188 2.696594 79.997719 1.802063 81.095375 1.802063 C 82.196938 1.802063 83.091469 2.696594 83.091469 3.798156 Z M 83.091469 3.798156 " transform="matrix(1,0,0,-1,16.389,148.138)"/>
<path style="fill-rule:nonzero;fill:rgb(0%,0%,100%);fill-opacity:1;stroke-width:0.3985;stroke-linecap:butt;stroke-linejoin:miter;stroke:rgb(0%,0%,100%);stroke-opacity:1;stroke-miterlimit:10;" d="M 58.896156 2.028625 C 58.896156 3.130188 58.005531 4.020813 56.903969 4.020813 C 55.802406 4.020813 54.911781 3.130188 54.911781 2.028625 C 54.911781 0.927063 55.802406 0.0364375 56.903969 0.0364375 C 58.005531 0.0364375 58.896156 0.927063 58.896156 2.028625 Z M 58.896156 2.028625 " transform="matrix(1,0,0,-1,16.389,148.138)"/>
<path style="fill-rule:nonzero;fill:rgb(0%,0%,100%);fill-opacity:1;stroke-width:0.3985;stroke-linecap:butt;stroke-linejoin:miter;stroke:rgb(0%,0%,100%);stroke-opacity:1;stroke-miterlimit:10;" d="M 34.036781 30.73175 C 34.036781 31.833313 33.146156 32.723938 32.044594 32.723938 C 30.943031 32.723938 30.052406 31.833313 30.052406 30.73175 C 30.052406 29.630188 30.943031 28.739563 32.044594 28.739563 C 33.146156 28.739563 34.036781 29.630188 34.036781 30.73175 Z M 34.036781 30.73175 " transform="matrix(1,0,0,-1,16.389,148.138)"/>
<path style="fill-rule:nonzero;fill:rgb(0%,0%,100%);fill-opacity:1;stroke-width:0.3985;stroke-linecap:butt;stroke-linejoin:miter;stroke:rgb(0%,0%,100%);stroke-opacity:1;stroke-miterlimit:10;" d="M 105.314125 21.626281 C 105.314125 22.727844 104.419594 23.618469 103.318031 23.618469 C 102.220375 23.618469 101.325844 22.727844 101.325844 21.626281 C 101.325844 20.524719 102.220375 19.634094 103.318031 19.634094 C 104.419594 19.634094 105.314125 20.524719 105.314125 21.626281 Z M 105.314125 21.626281 " transform="matrix(1,0,0,-1,16.389,148.138)"/>
<path style="fill-rule:nonzero;fill:rgb(0%,0%,100%);fill-opacity:1;stroke-width:0.3985;stroke-linecap:butt;stroke-linejoin:miter;stroke:rgb(0%,0%,100%);stroke-opacity:1;stroke-miterlimit:10;" d="M 123.751625 88.829406 C 123.751625 89.930969 122.857094 90.821594 121.759438 90.821594 C 120.657875 90.821594 119.76725 89.930969 119.76725 88.829406 C 119.76725 87.727844 120.657875 86.837219 121.759438 86.837219 C 122.857094 86.837219 123.751625 87.727844 123.751625 88.829406 Z M 123.751625 88.829406 " transform="matrix(1,0,0,-1,16.389,148.138)"/>
<path style="fill-rule:nonzero;fill:rgb(0%,0%,100%);fill-opacity:1;stroke-width:0.3985;stroke-linecap:butt;stroke-linejoin:miter;stroke:rgb(0%,0%,100%);stroke-opacity:1;stroke-miterlimit:10;" d="M 12.958656 77.063781 C 12.958656 78.165344 12.064125 79.055969 10.966469 79.055969 C 9.864906 79.055969 8.974281 78.165344 8.974281 77.063781 C 8.974281 75.962219 9.864906 75.071594 10.966469 75.071594 C 12.064125 75.071594 12.958656 75.962219 12.958656 77.063781 Z M 12.958656 77.063781 " transform="matrix(1,0,0,-1,16.389,148.138)"/>
<path style="fill-rule:nonzero;fill:rgb(0%,0%,100%);fill-opacity:1;stroke-width:0.3985;stroke-linecap:butt;stroke-linejoin:miter;stroke:rgb(0%,0%,100%);stroke-opacity:1;stroke-miterlimit:10;" d="M 49.028969 134.489563 C 49.028969 135.591125 48.134438 136.48175 47.036781 136.48175 C 45.935219 136.48175 45.044594 135.591125 45.044594 134.489563 C 45.044594 133.391906 45.935219 132.497375 47.036781 132.497375 C 48.134438 132.497375 49.028969 133.391906 49.028969 134.489563 Z M 49.028969 134.489563 " transform="matrix(1,0,0,-1,16.389,148.138)"/>
<path style="fill-rule:nonzero;fill:rgb(0%,0%,100%);fill-opacity:1;stroke-width:0.3985;stroke-linecap:butt;stroke-linejoin:miter;stroke:rgb(0%,0%,100%);stroke-opacity:1;stroke-miterlimit:10;" d="M 163.880531 82.751281 C 163.880531 83.852844 162.989906 84.743469 161.888344 84.743469 C 160.786781 84.743469 159.896156 83.852844 159.896156 82.751281 C 159.896156 81.653625 160.786781 80.759094 161.888344 80.759094 C 162.989906 80.759094 163.880531 81.653625 163.880531 82.751281 Z M 163.880531 82.751281 " transform="matrix(1,0,0,-1,16.389,148.138)"/>
<path style="fill-rule:nonzero;fill:rgb(0%,0%,100%);fill-opacity:1;stroke-width:0.3985;stroke-linecap:butt;stroke-linejoin:miter;stroke:rgb(0%,0%,100%);stroke-opacity:1;stroke-miterlimit:10;" d="M 17.443031 102.583313 C 17.443031 103.684875 16.5485 104.579406 15.450844 104.579406 C 14.349281 104.579406 13.45475 103.684875 13.45475 102.583313 C 13.45475 101.485656 14.349281 100.591125 15.450844 100.591125 C 16.5485 100.591125 17.443031 101.485656 17.443031 102.583313 Z M 17.443031 102.583313 " transform="matrix(1,0,0,-1,16.389,148.138)"/>
<path style="fill-rule:nonzero;fill:rgb(0%,0%,100%);fill-opacity:1;stroke-width:0.3985;stroke-linecap:butt;stroke-linejoin:miter;stroke:rgb(0%,0%,100%);stroke-opacity:1;stroke-miterlimit:10;" d="M 85.614906 117.973938 C 85.614906 119.0755 84.724281 119.966125 83.622719 119.966125 C 82.521156 119.966125 81.630531 119.0755 81.630531 117.973938 C 81.630531 116.872375 82.521156 115.98175 83.622719 115.98175 C 84.724281 115.98175 85.614906 116.872375 85.614906 117.973938 Z M 85.614906 117.973938 " transform="matrix(1,0,0,-1,16.389,148.138)"/>
<path style="fill-rule:nonzero;fill:rgb(0%,0%,100%);fill-opacity:1;stroke-width:0.3985;stroke-linecap:butt;stroke-linejoin:miter;stroke:rgb(0%,0%,100%);stroke-opacity:1;stroke-miterlimit:10;" d="M 4.407875 40.001281 C 4.407875 41.102844 3.513344 41.993469 2.415688 41.993469 C 1.314125 41.993469 0.4235 41.102844 0.4235 40.001281 C 0.4235 38.899719 1.314125 38.009094 2.415688 38.009094 C 3.513344 38.009094 4.407875 38.899719 4.407875 40.001281 Z M 4.407875 40.001281 " transform="matrix(1,0,0,-1,16.389,148.138)"/>
<path style="fill-rule:nonzero;fill:rgb(0%,0%,100%);fill-opacity:1;stroke-width:0.3985;stroke-linecap:butt;stroke-linejoin:miter;stroke:rgb(0%,0%,100%);stroke-opacity:1;stroke-miterlimit:10;" d="M 154.958656 2.708313 C 154.958656 3.809875 154.068031 4.7005 152.966469 4.7005 C 151.864906 4.7005 150.974281 3.809875 150.974281 2.708313 C 150.974281 1.610656 151.864906 0.716125 152.966469 0.716125 C 154.068031 0.716125 154.958656 1.610656 154.958656 2.708313 Z M 154.958656 2.708313 " transform="matrix(1,0,0,-1,16.389,148.138)"/>
<path style="fill-rule:nonzero;fill:rgb(0%,0%,100%);fill-opacity:1;stroke-width:0.3985;stroke-linecap:butt;stroke-linejoin:miter;stroke:rgb(0%,0%,100%);stroke-opacity:1;stroke-miterlimit:10;" d="M 8.751625 132.692688 C 8.751625 133.79425 7.861 134.684875 6.759438 134.684875 C 5.657875 134.684875 4.76725 133.79425 4.76725 132.692688 C 4.76725 131.591125 5.657875 130.7005 6.759438 130.7005 C 7.861 130.7005 8.751625 131.591125 8.751625 132.692688 Z M 8.751625 132.692688 " transform="matrix(1,0,0,-1,16.389,148.138)"/>
<path style="fill-rule:nonzero;fill:rgb(0%,0%,100%);fill-opacity:1;stroke-width:0.3985;stroke-linecap:butt;stroke-linejoin:miter;stroke:rgb(0%,0%,100%);stroke-opacity:1;stroke-miterlimit:10;" d="M 2.474281 114.149719 C 2.474281 115.247375 1.57975 116.141906 0.482094 116.141906 C -0.619469 116.141906 -1.514 115.247375 -1.514 114.149719 C -1.514 113.048156 -0.619469 112.157531 0.482094 112.157531 C 1.57975 112.157531 2.474281 113.048156 2.474281 114.149719 Z M 2.474281 114.149719 " transform="matrix(1,0,0,-1,16.389,148.138)"/>
<path style="fill-rule:nonzero;fill:rgb(0%,0%,100%);fill-opacity:1;stroke-width:0.3985;stroke-linecap:butt;stroke-linejoin:miter;stroke:rgb(0%,0%,100%);stroke-opacity:1;stroke-miterlimit:10;" d="M 19.505531 44.212219 C 19.505531 45.313781 18.614906 46.204406 17.513344 46.204406 C 16.411781 46.204406 15.521156 45.313781 15.521156 44.212219 C 15.521156 43.110656 16.411781 42.220031 17.513344 42.220031 C 18.614906 42.220031 19.505531 43.110656 19.505531 44.212219 Z M 19.505531 44.212219 " transform="matrix(1,0,0,-1,16.389,148.138)"/>
<path style="fill-rule:nonzero;fill:rgb(0%,0%,100%);fill-opacity:1;stroke-width:0.3985;stroke-linecap:butt;stroke-linejoin:miter;stroke:rgb(0%,0%,100%);stroke-opacity:1;stroke-miterlimit:10;" d="M 134.845375 99.954406 C 134.845375 101.055969 133.95475 101.946594 132.853187 101.946594 C 131.751625 101.946594 130.861 101.055969 130.861 99.954406 C 130.861 98.85675 131.751625 97.962219 132.853187 97.962219 C 133.95475 97.962219 134.845375 98.85675 134.845375 99.954406 Z M 134.845375 99.954406 " transform="matrix(1,0,0,-1,16.389,148.138)"/>
<path style="fill-rule:nonzero;fill:rgb(0%,0%,100%);fill-opacity:1;stroke-width:0.3985;stroke-linecap:butt;stroke-linejoin:miter;stroke:rgb(0%,0%,100%);stroke-opacity:1;stroke-miterlimit:10;" d="M 147.880531 60.884094 C 147.880531 61.985656 146.986 62.876281 145.888344 62.876281 C 144.786781 62.876281 143.896156 61.985656 143.896156 60.884094 C 143.896156 59.782531 144.786781 58.891906 145.888344 58.891906 C 146.986 58.891906 147.880531 59.782531 147.880531 60.884094 Z M 147.880531 60.884094 " transform="matrix(1,0,0,-1,16.389,148.138)"/>
<path style="fill-rule:nonzero;fill:rgb(0%,0%,100%);fill-opacity:1;stroke-width:0.3985;stroke-linecap:butt;stroke-linejoin:miter;stroke:rgb(0%,0%,100%);stroke-opacity:1;stroke-miterlimit:10;" d="M 13.564125 10.54425 C 13.564125 11.645813 12.6735 12.536438 11.571938 12.536438 C 10.470375 12.536438 9.57975 11.645813 9.57975 10.54425 C 9.57975 9.446594 10.470375 8.552063 11.571938 8.552063 C 12.6735 8.552063 13.564125 9.446594 13.564125 10.54425 Z M 13.564125 10.54425 " transform="matrix(1,0,0,-1,16.389,148.138)"/>
<path style="fill-rule:nonzero;fill:rgb(0%,0%,100%);fill-opacity:1;stroke-width:0.3985;stroke-linecap:butt;stroke-linejoin:miter;stroke:rgb(0%,0%,100%);stroke-opacity:1;stroke-miterlimit:10;" d="M 114.138344 18.309875 C 114.138344 19.407531 113.247719 20.302063 112.146156 20.302063 C 111.044594 20.302063 110.153969 19.407531 110.153969 18.309875 C 110.153969 17.208313 111.044594 16.317688 112.146156 16.317688 C 113.247719 16.317688 114.138344 17.208313 114.138344 18.309875 Z M 114.138344 18.309875 " transform="matrix(1,0,0,-1,16.389,148.138)"/>
<path style="fill-rule:nonzero;fill:rgb(0%,0%,100%);fill-opacity:1;stroke-width:0.3985;stroke-linecap:butt;stroke-linejoin:miter;stroke:rgb(0%,0%,100%);stroke-opacity:1;stroke-miterlimit:10;" d="M 84.161781 97.423156 C 84.161781 98.520813 83.271156 99.415344 82.169594 99.415344 C 81.068031 99.415344 80.177406 98.520813 80.177406 97.423156 C 80.177406 96.321594 81.068031 95.430969 82.169594 95.430969 C 83.271156 95.430969 84.161781 96.321594 84.161781 97.423156 Z M 84.161781 97.423156 " transform="matrix(1,0,0,-1,16.389,148.138)"/>
<path style="fill-rule:nonzero;fill:rgb(0%,0%,100%);fill-opacity:1;stroke-width:0.3985;stroke-linecap:butt;stroke-linejoin:miter;stroke:rgb(0%,0%,100%);stroke-opacity:1;stroke-miterlimit:10;" d="M 71.841469 75.610656 C 71.841469 76.712219 70.946938 77.602844 69.845375 77.602844 C 68.747719 77.602844 67.853188 76.712219 67.853188 75.610656 C 67.853188 74.513 68.747719 73.618469 69.845375 73.618469 C 70.946938 73.618469 71.841469 74.513 71.841469 75.610656 Z M 71.841469 75.610656 " transform="matrix(1,0,0,-1,16.389,148.138)"/>
<path style="fill-rule:nonzero;fill:rgb(0%,0%,100%);fill-opacity:1;stroke-width:0.3985;stroke-linecap:butt;stroke-linejoin:miter;stroke:rgb(0%,0%,100%);stroke-opacity:1;stroke-miterlimit:10;" d="M 33.736 106.454406 C 33.736 107.555969 32.845375 108.446594 31.743813 108.446594 C 30.64225 108.446594 29.751625 107.555969 29.751625 106.454406 C 29.751625 105.352844 30.64225 104.462219 31.743813 104.462219 C 32.845375 104.462219 33.736 105.352844 33.736 106.454406 Z M 33.736 106.454406 " transform="matrix(1,0,0,-1,16.389,148.138)"/>
<path style="fill-rule:nonzero;fill:rgb(0%,0%,100%);fill-opacity:1;stroke-width:0.3985;stroke-linecap:butt;stroke-linejoin:miter;stroke:rgb(0%,0%,100%);stroke-opacity:1;stroke-miterlimit:10;" d="M 51.388344 78.251281 C 51.388344 79.348938 50.497719 80.243469 49.396156 80.243469 C 48.294594 80.243469 47.403969 79.348938 47.403969 78.251281 C 47.403969 77.149719 48.294594 76.255188 49.396156 76.255188 C 50.497719 76.255188 51.388344 77.149719 51.388344 78.251281 Z M 51.388344 78.251281 " transform="matrix(1,0,0,-1,16.389,148.138)"/>
<path style="fill-rule:nonzero;fill:rgb(0%,0%,100%);fill-opacity:1;stroke-width:0.3985;stroke-linecap:butt;stroke-linejoin:miter;stroke:rgb(0%,0%,100%);stroke-opacity:1;stroke-miterlimit:10;" d="M 146.286781 101.227844 C 146.286781 102.329406 145.39225 103.220031 144.294594 103.220031 C 143.193031 103.220031 142.2985 102.329406 142.2985 101.227844 C 142.2985 100.126281 143.193031 99.235656 144.294594 99.235656 C 145.39225 99.235656 146.286781 100.126281 146.286781 101.227844 Z M 146.286781 101.227844 " transform="matrix(1,0,0,-1,16.389,148.138)"/>
<path style="fill-rule:nonzero;fill:rgb(0%,0%,100%);fill-opacity:1;stroke-width:0.3985;stroke-linecap:butt;stroke-linejoin:miter;stroke:rgb(0%,0%,100%);stroke-opacity:1;stroke-miterlimit:10;" d="M 80.26725 100.204406 C 80.26725 101.302063 79.376625 102.196594 78.275063 102.196594 C 77.177406 102.196594 76.282875 101.302063 76.282875 100.204406 C 76.282875 99.102844 77.177406 98.212219 78.275063 98.212219 C 79.376625 98.212219 80.26725 99.102844 80.26725 100.204406 Z M 80.26725 100.204406 " transform="matrix(1,0,0,-1,16.389,148.138)"/>
<path style="fill-rule:nonzero;fill:rgb(0%,0%,100%);fill-opacity:1;stroke-width:0.3985;stroke-linecap:butt;stroke-linejoin:miter;stroke:rgb(0%,0%,100%);stroke-opacity:1;stroke-miterlimit:10;" d="M 27.275063 134.177063 C 27.275063 135.274719 26.380531 136.16925 25.278969 136.16925 C 24.181313 136.16925 23.286781 135.274719 23.286781 134.177063 C 23.286781 133.0755 24.181313 132.184875 25.278969 132.184875 C 26.380531 132.184875 27.275063 133.0755 27.275063 134.177063 Z M 27.275063 134.177063 " transform="matrix(1,0,0,-1,16.389,148.138)"/>
<path style="fill-rule:nonzero;fill:rgb(0%,0%,100%);fill-opacity:1;stroke-width:0.3985;stroke-linecap:butt;stroke-linejoin:miter;stroke:rgb(0%,0%,100%);stroke-opacity:1;stroke-miterlimit:10;" d="M 31.32975 78.516906 C 31.32975 79.618469 30.439125 80.509094 29.337563 80.509094 C 28.236 80.509094 27.345375 79.618469 27.345375 78.516906 C 27.345375 77.415344 28.236 76.524719 29.337563 76.524719 C 30.439125 76.524719 31.32975 77.415344 31.32975 78.516906 Z M 31.32975 78.516906 " transform="matrix(1,0,0,-1,16.389,148.138)"/>
<path style="fill-rule:nonzero;fill:rgb(0%,0%,100%);fill-opacity:1;stroke-width:0.3985;stroke-linecap:butt;stroke-linejoin:miter;stroke:rgb(0%,0%,100%);stroke-opacity:1;stroke-miterlimit:10;" d="M 39.228188 89.872375 C 39.228188 90.973938 38.337563 91.864563 37.236 91.864563 C 36.134438 91.864563 35.243813 90.973938 35.243813 89.872375 C 35.243813 88.774719 36.134438 87.880188 37.236 87.880188 C 38.337563 87.880188 39.228188 88.774719 39.228188 89.872375 Z M 39.228188 89.872375 " transform="matrix(1,0,0,-1,16.389,148.138)"/>
<path style="fill-rule:nonzero;fill:rgb(0%,0%,100%);fill-opacity:1;stroke-width:0.3985;stroke-linecap:butt;stroke-linejoin:miter;stroke:rgb(0%,0%,100%);stroke-opacity:1;stroke-miterlimit:10;" d="M 119.821938 108.513 C 119.821938 109.614563 118.927406 110.509094 117.825844 110.509094 C 116.728188 110.509094 115.833656 109.614563 115.833656 108.513 C 115.833656 107.415344 116.728188 106.520813 117.825844 106.520813 C 118.927406 106.520813 119.821938 107.415344 119.821938 108.513 Z M 119.821938 108.513 " transform="matrix(1,0,0,-1,16.389,148.138)"/>
<path style="fill-rule:nonzero;fill:rgb(0%,0%,100%);fill-opacity:1;stroke-width:0.3985;stroke-linecap:butt;stroke-linejoin:miter;stroke:rgb(0%,0%,100%);stroke-opacity:1;stroke-miterlimit:10;" d="M 149.876625 112.610656 C 149.876625 113.712219 148.986 114.602844 147.884437 114.602844 C 146.786781 114.602844 145.89225 113.712219 145.89225 112.610656 C 145.89225 111.509094 146.786781 110.618469 147.884437 110.618469 C 148.986 110.618469 149.876625 111.509094 149.876625 112.610656 Z M 149.876625 112.610656 " transform="matrix(1,0,0,-1,16.389,148.138)"/>
<path style="fill-rule:nonzero;fill:rgb(0%,0%,100%);fill-opacity:1;stroke-width:0.3985;stroke-linecap:butt;stroke-linejoin:miter;stroke:rgb(0%,0%,100%);stroke-opacity:1;stroke-miterlimit:10;" d="M 81.349281 50.688781 C 81.349281 51.786438 80.45475 52.680969 79.357094 52.680969 C 78.255531 52.680969 77.364906 51.786438 77.364906 50.688781 C 77.364906 49.587219 78.255531 48.692688 79.357094 48.692688 C 80.45475 48.692688 81.349281 49.587219 81.349281 50.688781 Z M 81.349281 50.688781 " transform="matrix(1,0,0,-1,16.389,148.138)"/>
<path style="fill-rule:nonzero;fill:rgb(0%,0%,100%);fill-opacity:1;stroke-width:0.3985;stroke-linecap:butt;stroke-linejoin:miter;stroke:rgb(0%,0%,100%);stroke-opacity:1;stroke-miterlimit:10;" d="M 111.232094 58.739563 C 111.232094 59.841125 110.337563 60.73175 109.239906 60.73175 C 108.138344 60.73175 107.243813 59.841125 107.243813 58.739563 C 107.243813 57.638 108.138344 56.747375 109.239906 56.747375 C 110.337563 56.747375 111.232094 57.638 111.232094 58.739563 Z M 111.232094 58.739563 " transform="matrix(1,0,0,-1,16.389,148.138)"/>
<path style="fill-rule:nonzero;fill:rgb(0%,0%,100%);fill-opacity:1;stroke-width:0.3985;stroke-linecap:butt;stroke-linejoin:miter;stroke:rgb(0%,0%,100%);stroke-opacity:1;stroke-miterlimit:10;" d="M 73.505531 25.3255 C 73.505531 26.423156 72.614906 27.317688 71.513344 27.317688 C 70.411781 27.317688 69.521156 26.423156 69.521156 25.3255 C 69.521156 24.223938 70.411781 23.333313 71.513344 23.333313 C 72.614906 23.333313 73.505531 24.223938 73.505531 25.3255 Z M 73.505531 25.3255 " transform="matrix(1,0,0,-1,16.389,148.138)"/>
<path style="fill-rule:nonzero;fill:rgb(0%,0%,100%);fill-opacity:1;stroke-width:0.3985;stroke-linecap:butt;stroke-linejoin:miter;stroke:rgb(0%,0%,100%);stroke-opacity:1;stroke-miterlimit:10;" d="M 13.657875 92.954406 C 13.657875 94.055969 12.76725 94.946594 11.665688 94.946594 C 10.564125 94.946594 9.6735 94.055969 9.6735 92.954406 C 9.6735 91.852844 10.564125 90.962219 11.665688 90.962219 C 12.76725 90.962219 13.657875 91.852844 13.657875 92.954406 Z M 13.657875 92.954406 " transform="matrix(1,0,0,-1,16.389,148.138)"/>
<path style="fill-rule:nonzero;fill:rgb(0%,0%,100%);fill-opacity:1;stroke-width:0.3985;stroke-linecap:butt;stroke-linejoin:miter;stroke:rgb(0%,0%,100%);stroke-opacity:1;stroke-miterlimit:10;" d="M 5.864906 85.313781 C 5.864906 86.415344 4.974281 87.305969 3.872719 87.305969 C 2.771156 87.305969 1.880531 86.415344 1.880531 85.313781 C 1.880531 84.216125 2.771156 83.321594 3.872719 83.321594 C 4.974281 83.321594 5.864906 84.216125 5.864906 85.313781 Z M 5.864906 85.313781 " transform="matrix(1,0,0,-1,16.389,148.138)"/>
<path style="fill-rule:nonzero;fill:rgb(0%,0%,100%);fill-opacity:1;stroke-width:0.3985;stroke-linecap:butt;stroke-linejoin:miter;stroke:rgb(0%,0%,100%);stroke-opacity:1;stroke-miterlimit:10;" d="M 142.763344 106.727844 C 142.763344 107.829406 141.872719 108.720031 140.771156 108.720031 C 139.669594 108.720031 138.778969 107.829406 138.778969 106.727844 C 138.778969 105.630188 139.669594 104.735656 140.771156 104.735656 C 141.872719 104.735656 142.763344 105.630188 142.763344 106.727844 Z M 142.763344 106.727844 " transform="matrix(1,0,0,-1,16.389,148.138)"/>
<path style="fill-rule:nonzero;fill:rgb(0%,0%,100%);fill-opacity:1;stroke-width:0.3985;stroke-linecap:butt;stroke-linejoin:miter;stroke:rgb(0%,0%,100%);stroke-opacity:1;stroke-miterlimit:10;" d="M 1.993813 36.813781 C 1.993813 37.915344 1.099281 38.809875 0.001625 38.809875 C -1.099937 38.809875 -1.994469 37.915344 -1.994469 36.813781 C -1.994469 35.716125 -1.099937 34.821594 0.001625 34.821594 C 1.099281 34.821594 1.993813 35.716125 1.993813 36.813781 Z M 1.993813 36.813781 " transform="matrix(1,0,0,-1,16.389,148.138)"/>
<path style="fill-rule:nonzero;fill:rgb(0%,0%,100%);fill-opacity:1;stroke-width:0.3985;stroke-linecap:butt;stroke-linejoin:miter;stroke:rgb(0%,0%,100%);stroke-opacity:1;stroke-miterlimit:10;" d="M 34.388344 9.313781 C 34.388344 10.411438 33.493813 11.305969 32.396156 11.305969 C 31.294594 11.305969 30.403969 10.411438 30.403969 9.313781 C 30.403969 8.212219 31.294594 7.321594 32.396156 7.321594 C 33.493813 7.321594 34.388344 8.212219 34.388344 9.313781 Z M 34.388344 9.313781 " transform="matrix(1,0,0,-1,16.389,148.138)"/>
<path style="fill-rule:nonzero;fill:rgb(0%,0%,100%);fill-opacity:1;stroke-width:0.3985;stroke-linecap:butt;stroke-linejoin:miter;stroke:rgb(0%,0%,100%);stroke-opacity:1;stroke-miterlimit:10;" d="M 79.638344 83.102844 C 79.638344 84.204406 78.743813 85.095031 77.646156 85.095031 C 76.544594 85.095031 75.650063 84.204406 75.650063 83.102844 C 75.650063 82.005188 76.544594 81.110656 77.646156 81.110656 C 78.743813 81.110656 79.638344 82.005188 79.638344 83.102844 Z M 79.638344 83.102844 " transform="matrix(1,0,0,-1,16.389,148.138)"/>
<path style="fill-rule:nonzero;fill:rgb(0%,0%,100%);fill-opacity:1;stroke-width:0.3985;stroke-linecap:butt;stroke-linejoin:miter;stroke:rgb(0%,0%,100%);stroke-opacity:1;stroke-miterlimit:10;" d="M 39.275063 48.087219 C 39.275063 49.188781 38.380531 50.079406 37.282875 50.079406 C 36.181313 50.079406 35.286781 49.188781 35.286781 48.087219 C 35.286781 46.985656 36.181313 46.095031 37.282875 46.095031 C 38.380531 46.095031 39.275063 46.985656 39.275063 48.087219 Z M 39.275063 48.087219 " transform="matrix(1,0,0,-1,16.389,148.138)"/>
<path style="fill-rule:nonzero;fill:rgb(0%,0%,100%);fill-opacity:1;stroke-width:0.3985;stroke-linecap:butt;stroke-linejoin:miter;stroke:rgb(0%,0%,100%);stroke-opacity:1;stroke-miterlimit:10;" d="M 19.493813 100.009094 C 19.493813 101.110656 18.599281 102.001281 17.501625 102.001281 C 16.400063 102.001281 15.505531 101.110656 15.505531 100.009094 C 15.505531 98.911438 16.400063 98.016906 17.501625 98.016906 C 18.599281 98.016906 19.493813 98.911438 19.493813 100.009094 Z M 19.493813 100.009094 " transform="matrix(1,0,0,-1,16.389,148.138)"/>
<path style="fill-rule:nonzero;fill:rgb(0%,0%,100%);fill-opacity:1;stroke-width:0.3985;stroke-linecap:butt;stroke-linejoin:miter;stroke:rgb(0%,0%,100%);stroke-opacity:1;stroke-miterlimit:10;" d="M 111.333656 36.411438 C 111.333656 37.513 110.443031 38.403625 109.341469 38.403625 C 108.239906 38.403625 107.349281 37.513 107.349281 36.411438 C 107.349281 35.313781 108.239906 34.41925 109.341469 34.41925 C 110.443031 34.41925 111.333656 35.313781 111.333656 36.411438 Z M 111.333656 36.411438 " transform="matrix(1,0,0,-1,16.389,148.138)"/>
<path style="fill-rule:nonzero;fill:rgb(0%,0%,100%);fill-opacity:1;stroke-width:0.3985;stroke-linecap:butt;stroke-linejoin:miter;stroke:rgb(0%,0%,100%);stroke-opacity:1;stroke-miterlimit:10;" d="M 119.751625 89.247375 C 119.751625 90.348938 118.861 91.239563 117.759438 91.239563 C 116.657875 91.239563 115.76725 90.348938 115.76725 89.247375 C 115.76725 88.145813 116.657875 87.255188 117.759438 87.255188 C 118.861 87.255188 119.751625 88.145813 119.751625 89.247375 Z M 119.751625 89.247375 " transform="matrix(1,0,0,-1,16.389,148.138)"/>
</g>
</svg>
