<?xml version="1.0" encoding="UTF-8"?>
<svg xmlns="http://www.w3.org/2000/svg" xmlns:xlink="http://www.w3.org/1999/xlink" width="194.662pt" height="161.789pt" viewBox="0 0 194.662 161.789" version="1.1">
<defs>
<clipPath id="clip1">
  <path d="M 0 0 L 194.660156 0 L 194.660156 161.789062 L 0 161.789062 Z M 0 0 "/>
</clipPath>
</defs>
<g id="surface1">
<g clip-path="url(#clip1)" clip-rule="nonzero">
<path style="fill:none;stroke-width:0.3985;stroke-linecap:butt;stroke-linejoin:miter;stroke:rgb(75%,75%,75%);stroke-opacity:1;stroke-miterlimit:10;" d="M -16.189781 -13.449844 L -16.189781 147.940781 L 178.075844 147.940781 L 178.075844 -13.449844 Z M -16.189781 -13.449844 " transform="matrix(1,0,0,-1,16.389,148.14)"/>
</g>
<path style="fill-rule:nonzero;fill:rgb(0%,0%,100%);fill-opacity:1;stroke-width:0.3985;stroke-linecap:butt;stroke-linejoin:miter;stroke:rgb(0%,0%,100%);stroke-opacity:1;stroke-miterlimit:10;" d="M 108.380531 46.659531 C 108.380531 47.761094 107.489906 48.651719 106.388344 48.651719 C 105.286781 48.651719 104.396156 47.761094 104.396156 46.659531 C 104.396156 45.561875 105.286781 44.667344 106.388344 44.667344 C 107.489906 44.667344 108.380531 45.561875 108.380531 46.659531 Z M 108.380531 46.659531 " transform="matrix(1,0,0,-1,16.389,148.14)"/>
<path style="fill-rule:nonzero;fill:rgb(0%,0%,100%);fill-opacity:1;stroke-width:0.3985;stroke-linecap:butt;stroke-linejoin:miter;stroke:rgb(0%,0%,100%);stroke-opacity:1;stroke-miterlimit:10;" d="M 54.357094 1.507187 C 54.357094 2.60875 53.466469 3.499375 52.364906 3.499375 C 51.263344 3.499375 50.372719 2.60875 50.372719 1.507187 C 50.372719 0.405625 51.263344 -0.485 52.364906 -0.485 C 53.466469 -0.485 54.357094 0.405625 54.357094 1.507187 Z M 54.357094 1.507187 " transform="matrix(1,0,0,-1,16.389,148.14)"/>
<path style="fill-rule:nonzero;fill:rgb(0%,0%,100%);fill-opacity:1;stroke-width:0.3985;stroke-linecap:butt;stroke-linejoin:miter;stroke:rgb(0%,0%,100%);stroke-opacity:1;stroke-miterlimit:10;" d="M 49.349281 4.413437 C 49.349281 5.515 48.45475 6.405625 47.357094 6.405625 C 46.255531 6.405625 45.361 5.515 45.361 4.413437 C 45.361 3.311875 46.255531 2.42125 47.357094 2.42125 C 48.45475 2.42125 49.349281 3.311875 49.349281 4.413437 Z M 49.349281 4.413437 " transform="matrix(1,0,0,-1,16.389,148.14)"/>
<path style="fill-rule:nonzero;fill:rgb(0%,0%,100%);fill-opacity:1;stroke-width:0.3985;stroke-linecap:butt;stroke-linejoin:miter;stroke:rgb(0%,0%,100%);stroke-opacity:1;stroke-miterlimit:10;" d="M 76.521156 68.4525 C 76.521156 69.554062 75.630531 70.444687 74.528969 70.444687 C 73.427406 70.444687 72.536781 69.554062 72.536781 68.4525 C 72.536781 67.350937 73.427406 66.460312 74.528969 66.460312 C 75.630531 66.460312 76.521156 67.350937 76.521156 68.4525 Z M 76.521156 68.4525 " transform="matrix(1,0,0,-1,16.389,148.14)"/>
<path style="fill-rule:nonzero;fill:rgb(0%,0%,100%);fill-opacity:1;stroke-width:0.3985;stroke-linecap:butt;stroke-linejoin:miter;stroke:rgb(0%,0%,100%);stroke-opacity:1;stroke-miterlimit:10;" d="M 16.384438 44.253281 C 16.384438 45.354844 15.493813 46.245469 14.39225 46.245469 C 13.290688 46.245469 12.400063 45.354844 12.400063 44.253281 C 12.400063 43.155625 13.290688 42.261094 14.39225 42.261094 C 15.493813 42.261094 16.384438 43.155625 16.384438 44.253281 Z M 16.384438 44.253281 " transform="matrix(1,0,0,-1,16.389,148.14)"/>
<path style="fill-rule:nonzero;fill:rgb(0%,0%,100%);fill-opacity:1;stroke-width:0.3985;stroke-linecap:butt;stroke-linejoin:miter;stroke:rgb(0%,0%,100%);stroke-opacity:1;stroke-miterlimit:10;" d="M 90.900063 14.905625 C 90.900063 16.003281 90.005531 16.897812 88.907875 16.897812 C 87.806313 16.897812 86.911781 16.003281 86.911781 14.905625 C 86.911781 13.804062 87.806313 12.909531 88.907875 12.909531 C 90.005531 12.909531 90.900063 13.804062 90.900063 14.905625 Z M 90.900063 14.905625 " transform="matrix(1,0,0,-1,16.389,148.14)"/>
<path style="fill-rule:nonzero;fill:rgb(0%,0%,100%);fill-opacity:1;stroke-width:0.3985;stroke-linecap:butt;stroke-linejoin:miter;stroke:rgb(0%,0%,100%);stroke-opacity:1;stroke-miterlimit:10;" d="M 1.993813 46.909531 C 1.993813 48.011094 1.103188 48.901719 0.001625 48.901719 C -1.099937 48.901719 -1.990562 48.011094 -1.990562 46.909531 C -1.990562 45.811875 -1.099937 44.917344 0.001625 44.917344 C 1.103188 44.917344 1.993813 45.811875 1.993813 46.909531 Z M 1.993813 46.909531 " transform="matrix(1,0,0,-1,16.389,148.14)"/>
<path style="fill-rule:nonzero;fill:rgb(0%,0%,100%);fill-opacity:1;stroke-width:0.3985;stroke-linecap:butt;stroke-linejoin:miter;stroke:rgb(0%,0%,100%);stroke-opacity:1;stroke-miterlimit:10;" d="M 45.028969 65.64 C 45.028969 66.741562 44.134438 67.632187 43.036781 67.632187 C 41.935219 67.632187 41.044594 66.741562 41.044594 65.64 C 41.044594 64.542344 41.935219 63.647812 43.036781 63.647812 C 44.134438 63.647812 45.028969 64.542344 45.028969 65.64 Z M 45.028969 65.64 " transform="matrix(1,0,0,-1,16.389,148.14)"/>
<path style="fill-rule:nonzero;fill:rgb(0%,0%,100%);fill-opacity:1;stroke-width:0.3985;stroke-linecap:butt;stroke-linejoin:miter;stroke:rgb(0%,0%,100%);stroke-opacity:1;stroke-miterlimit:10;" d="M 47.001625 75.729844 C 47.001625 76.8275 46.111 77.722031 45.009438 77.722031 C 43.907875 77.722031 43.01725 76.8275 43.01725 75.729844 C 43.01725 74.628281 43.907875 73.737656 45.009438 73.737656 C 46.111 73.737656 47.001625 74.628281 47.001625 75.729844 Z M 47.001625 75.729844 " transform="matrix(1,0,0,-1,16.389,148.14)"/>
<path style="fill-rule:nonzero;fill:rgb(0%,0%,100%);fill-opacity:1;stroke-width:0.3985;stroke-linecap:butt;stroke-linejoin:miter;stroke:rgb(0%,0%,100%);stroke-opacity:1;stroke-miterlimit:10;" d="M 36.935219 22.186875 C 36.935219 23.288437 36.044594 24.179062 34.943031 24.179062 C 33.841469 24.179062 32.950844 23.288437 32.950844 22.186875 C 32.950844 21.089219 33.841469 20.194687 34.943031 20.194687 C 36.044594 20.194687 36.935219 21.089219 36.935219 22.186875 Z M 36.935219 22.186875 " transform="matrix(1,0,0,-1,16.389,148.14)"/>
<path style="fill-rule:nonzero;fill:rgb(0%,0%,100%);fill-opacity:1;stroke-width:0.3985;stroke-linecap:butt;stroke-linejoin:miter;stroke:rgb(0%,0%,100%);stroke-opacity:1;stroke-miterlimit:10;" d="M 35.810219 125.397812 C 35.810219 126.499375 34.919594 127.39 33.818031 127.39 C 32.720375 127.39 31.825844 126.499375 31.825844 125.397812 C 31.825844 124.300156 32.720375 123.405625 33.818031 123.405625 C 34.919594 123.405625 35.810219 124.300156 35.810219 125.397812 Z M 35.810219 125.397812 " transform="matrix(1,0,0,-1,16.389,148.14)"/>
<path style="fill-rule:nonzero;fill:rgb(0%,0%,100%);fill-opacity:1;stroke-width:0.3985;stroke-linecap:butt;stroke-linejoin:miter;stroke:rgb(0%,0%,100%);stroke-opacity:1;stroke-miterlimit:10;" d="M 31.696938 83.565781 C 31.696938 84.667344 30.802406 85.557969 29.70475 85.557969 C 28.603188 85.557969 27.712563 84.667344 27.712563 83.565781 C 27.712563 82.464219 28.603188 81.573594 29.70475 81.573594 C 30.802406 81.573594 31.696938 82.464219 31.696938 83.565781 Z M 31.696938 83.565781 " transform="matrix(1,0,0,-1,16.389,148.14)"/>
<path style="fill-rule:nonzero;fill:rgb(0%,0%,100%);fill-opacity:1;stroke-width:0.3985;stroke-linecap:butt;stroke-linejoin:miter;stroke:rgb(0%,0%,100%);stroke-opacity:1;stroke-miterlimit:10;" d="M 58.126625 3.425156 C 58.126625 4.522812 57.232094 5.417344 56.134438 5.417344 C 55.032875 5.417344 54.138344 4.522812 54.138344 3.425156 C 54.138344 2.323594 55.032875 1.432969 56.134438 1.432969 C 57.232094 1.432969 58.126625 2.323594 58.126625 3.425156 Z M 58.126625 3.425156 " transform="matrix(1,0,0,-1,16.389,148.14)"/>
<path style="fill-rule:nonzero;fill:rgb(0%,0%,100%);fill-opacity:1;stroke-width:0.3985;stroke-linecap:butt;stroke-linejoin:miter;stroke:rgb(0%,0%,100%);stroke-opacity:1;stroke-miterlimit:10;" d="M 44.884438 -0.000625 C 44.884438 1.100937 43.989906 1.991562 42.89225 1.991562 C 41.790688 1.991562 40.900063 1.100937 40.900063 -0.000625 C 40.900063 -1.102188 41.790688 -1.992813 42.89225 -1.992813 C 43.989906 -1.992813 44.884438 -1.102188 44.884438 -0.000625 Z M 44.884438 -0.000625 " transform="matrix(1,0,0,-1,16.389,148.14)"/>
<path style="fill-rule:nonzero;fill:rgb(0%,0%,100%);fill-opacity:1;stroke-width:0.3985;stroke-linecap:butt;stroke-linejoin:miter;stroke:rgb(0%,0%,100%);stroke-opacity:1;stroke-miterlimit:10;" d="M 84.978188 46.636094 C 84.978188 47.737656 84.087563 48.628281 82.986 48.628281 C 81.888344 48.628281 80.993813 47.737656 80.993813 46.636094 C 80.993813 45.538437 81.888344 44.643906 82.986 44.643906 C 84.087563 44.643906 84.978188 45.538437 84.978188 46.636094 Z M 84.978188 46.636094 " transform="matrix(1,0,0,-1,16.389,148.14)"/>
<path style="fill-rule:nonzero;fill:rgb(0%,0%,100%);fill-opacity:1;stroke-width:0.3985;stroke-linecap:butt;stroke-linejoin:miter;stroke:rgb(0%,0%,100%);stroke-opacity:1;stroke-miterlimit:10;" d="M 18.864906 70.030625 C 18.864906 71.132187 17.970375 72.026719 16.872719 72.026719 C 15.771156 72.026719 14.876625 71.132187 14.876625 70.030625 C 14.876625 68.932969 15.771156 68.038437 16.872719 68.038437 C 17.970375 68.038437 18.864906 68.932969 18.864906 70.030625 Z M 18.864906 70.030625 " transform="matrix(1,0,0,-1,16.389,148.14)"/>
<path style="fill-rule:nonzero;fill:rgb(0%,0%,100%);fill-opacity:1;stroke-width:0.3985;stroke-linecap:butt;stroke-linejoin:miter;stroke:rgb(0%,0%,100%);stroke-opacity:1;stroke-miterlimit:10;" d="M 23.712563 91.847031 C 23.712563 92.948594 22.821938 93.843125 21.720375 93.843125 C 20.618813 93.843125 19.728188 92.948594 19.728188 91.847031 C 19.728188 90.749375 20.618813 89.854844 21.720375 89.854844 C 22.821938 89.854844 23.712563 90.749375 23.712563 91.847031 Z M 23.712563 91.847031 " transform="matrix(1,0,0,-1,16.389,148.14)"/>
<path style="fill-rule:nonzero;fill:rgb(0%,0%,100%);fill-opacity:1;stroke-width:0.3985;stroke-linecap:butt;stroke-linejoin:miter;stroke:rgb(0%,0%,100%);stroke-opacity:1;stroke-miterlimit:10;" d="M 12.759438 92.475937 C 12.759438 93.5775 11.868813 94.468125 10.76725 94.468125 C 9.665688 94.468125 8.775063 93.5775 8.775063 92.475937 C 8.775063 91.374375 9.665688 90.48375 10.76725 90.48375 C 11.868813 90.48375 12.759438 91.374375 12.759438 92.475937 Z M 12.759438 92.475937 " transform="matrix(1,0,0,-1,16.389,148.14)"/>
<path style="fill-rule:nonzero;fill:rgb(0%,0%,100%);fill-opacity:1;stroke-width:0.3985;stroke-linecap:butt;stroke-linejoin:miter;stroke:rgb(0%,0%,100%);stroke-opacity:1;stroke-miterlimit:10;" d="M 25.403969 74.237656 C 25.403969 75.339219 24.513344 76.23375 23.411781 76.23375 C 22.314125 76.23375 21.419594 75.339219 21.419594 74.237656 C 21.419594 73.14 22.314125 72.245469 23.411781 72.245469 C 24.513344 72.245469 25.403969 73.14 25.403969 74.237656 Z M 25.403969 74.237656 " transform="matrix(1,0,0,-1,16.389,148.14)"/>
<path style="fill-rule:nonzero;fill:rgb(0%,0%,100%);fill-opacity:1;stroke-width:0.3985;stroke-linecap:butt;stroke-linejoin:miter;stroke:rgb(0%,0%,100%);stroke-opacity:1;stroke-miterlimit:10;" d="M 5.325844 9.479844 C 5.325844 10.581406 4.431313 11.472031 3.32975 11.472031 C 2.232094 11.472031 1.337563 10.581406 1.337563 9.479844 C 1.337563 8.382187 2.232094 7.487656 3.32975 7.487656 C 4.431313 7.487656 5.325844 8.382187 5.325844 9.479844 Z M 5.325844 9.479844 " transform="matrix(1,0,0,-1,16.389,148.14)"/>
<path style="fill-rule:nonzero;fill:rgb(0%,0%,100%);fill-opacity:1;stroke-width:0.3985;stroke-linecap:butt;stroke-linejoin:miter;stroke:rgb(0%,0%,100%);stroke-opacity:1;stroke-miterlimit:10;" d="M 11.611 75.964219 C 11.611 77.065781 10.720375 77.956406 9.618813 77.956406 C 8.51725 77.956406 7.626625 77.065781 7.626625 75.964219 C 7.626625 74.862656 8.51725 73.972031 9.618813 73.972031 C 10.720375 73.972031 11.611 74.862656 11.611 75.964219 Z M 11.611 75.964219 " transform="matrix(1,0,0,-1,16.389,148.14)"/>
<path style="fill-rule:nonzero;fill:rgb(0%,0%,100%);fill-opacity:1;stroke-width:0.3985;stroke-linecap:butt;stroke-linejoin:miter;stroke:rgb(0%,0%,100%);stroke-opacity:1;stroke-miterlimit:10;" d="M 10.372719 78.522812 C 10.372719 79.620469 9.482094 80.515 8.380531 80.515 C 7.278969 80.515 6.388344 79.620469 6.388344 78.522812 C 6.388344 77.42125 7.278969 76.526719 8.380531 76.526719 C 9.482094 76.526719 10.372719 77.42125 10.372719 78.522812 Z M 10.372719 78.522812 " transform="matrix(1,0,0,-1,16.389,148.14)"/>
<path style="fill-rule:nonzero;fill:rgb(0%,0%,100%);fill-opacity:1;stroke-width:0.3985;stroke-linecap:butt;stroke-linejoin:miter;stroke:rgb(0%,0%,100%);stroke-opacity:1;stroke-miterlimit:10;" d="M 82.989906 106.54625 C 82.989906 107.647812 82.095375 108.542344 80.997719 108.542344 C 79.896156 108.542344 79.005531 107.647812 79.005531 106.54625 C 79.005531 105.448594 79.896156 104.554062 80.997719 104.554062 C 82.095375 104.554062 82.989906 105.448594 82.989906 106.54625 Z M 82.989906 106.54625 " transform="matrix(1,0,0,-1,16.389,148.14)"/>
<path style="fill-rule:nonzero;fill:rgb(0%,0%,100%);fill-opacity:1;stroke-width:0.3985;stroke-linecap:butt;stroke-linejoin:miter;stroke:rgb(0%,0%,100%);stroke-opacity:1;stroke-miterlimit:10;" d="M 111.669594 65.979844 C 111.669594 67.081406 110.775063 67.972031 109.6735 67.972031 C 108.575844 67.972031 107.681313 67.081406 107.681313 65.979844 C 107.681313 64.882187 108.575844 63.987656 109.6735 63.987656 C 110.775063 63.987656 111.669594 64.882187 111.669594 65.979844 Z M 111.669594 65.979844 " transform="matrix(1,0,0,-1,16.389,148.14)"/>
<path style="fill-rule:nonzero;fill:rgb(0%,0%,100%);fill-opacity:1;stroke-width:0.3985;stroke-linecap:butt;stroke-linejoin:miter;stroke:rgb(0%,0%,100%);stroke-opacity:1;stroke-miterlimit:10;" d="M 41.39225 90.179062 C 41.39225 91.280625 40.501625 92.175156 39.400063 92.175156 C 38.2985 92.175156 37.407875 91.280625 37.407875 90.179062 C 37.407875 89.081406 38.2985 88.186875 39.400063 88.186875 C 40.501625 88.186875 41.39225 89.081406 41.39225 90.179062 Z M 41.39225 90.179062 " transform="matrix(1,0,0,-1,16.389,148.14)"/>
<path style="fill-rule:nonzero;fill:rgb(0%,0%,100%);fill-opacity:1;stroke-width:0.3985;stroke-linecap:butt;stroke-linejoin:miter;stroke:rgb(0%,0%,100%);stroke-opacity:1;stroke-miterlimit:10;" d="M 98.353188 134.491562 C 98.353188 135.593125 97.458656 136.48375 96.361 136.48375 C 95.259438 136.48375 94.368813 135.593125 94.368813 134.491562 C 94.368813 133.39 95.259438 132.499375 96.361 132.499375 C 97.458656 132.499375 98.353188 133.39 98.353188 134.491562 Z M 98.353188 134.491562 " transform="matrix(1,0,0,-1,16.389,148.14)"/>
<path style="fill-rule:nonzero;fill:rgb(0%,0%,100%);fill-opacity:1;stroke-width:0.3985;stroke-linecap:butt;stroke-linejoin:miter;stroke:rgb(0%,0%,100%);stroke-opacity:1;stroke-miterlimit:10;" d="M 47.376625 70.347031 C 47.376625 71.448594 46.486 72.339219 45.384438 72.339219 C 44.282875 72.339219 43.39225 71.448594 43.39225 70.347031 C 43.39225 69.245469 44.282875 68.354844 45.384438 68.354844 C 46.486 68.354844 47.376625 69.245469 47.376625 70.347031 Z M 47.376625 70.347031 " transform="matrix(1,0,0,-1,16.389,148.14)"/>
<path style="fill-rule:nonzero;fill:rgb(0%,0%,100%);fill-opacity:1;stroke-width:0.3985;stroke-linecap:butt;stroke-linejoin:miter;stroke:rgb(0%,0%,100%);stroke-opacity:1;stroke-miterlimit:10;" d="M 5.89225 70.948594 C 5.89225 72.050156 5.001625 72.940781 3.900063 72.940781 C 2.7985 72.940781 1.907875 72.050156 1.907875 70.948594 C 1.907875 69.847031 2.7985 68.956406 3.900063 68.956406 C 5.001625 68.956406 5.89225 69.847031 5.89225 70.948594 Z M 5.89225 70.948594 " transform="matrix(1,0,0,-1,16.389,148.14)"/>
<path style="fill-rule:nonzero;fill:rgb(0%,0%,100%);fill-opacity:1;stroke-width:0.3985;stroke-linecap:butt;stroke-linejoin:miter;stroke:rgb(0%,0%,100%);stroke-opacity:1;stroke-miterlimit:10;" d="M 43.236 30.725937 C 43.236 31.8275 42.345375 32.718125 41.243813 32.718125 C 40.14225 32.718125 39.251625 31.8275 39.251625 30.725937 C 39.251625 29.624375 40.14225 28.73375 41.243813 28.73375 C 42.345375 28.73375 43.236 29.624375 43.236 30.725937 Z M 43.236 30.725937 " transform="matrix(1,0,0,-1,16.389,148.14)"/>
<path style="fill-rule:nonzero;fill:rgb(0%,0%,100%);fill-opacity:1;stroke-width:0.3985;stroke-linecap:butt;stroke-linejoin:miter;stroke:rgb(0%,0%,100%);stroke-opacity:1;stroke-miterlimit:10;" d="M 97.478188 19.761094 C 97.478188 20.862656 96.587563 21.753281 95.486 21.753281 C 94.384438 21.753281 93.493813 20.862656 93.493813 19.761094 C 93.493813 18.659531 94.384438 17.768906 95.486 17.768906 C 96.587563 17.768906 97.478188 18.659531 97.478188 19.761094 Z M 97.478188 19.761094 " transform="matrix(1,0,0,-1,16.389,148.14)"/>
<path style="fill-rule:nonzero;fill:rgb(0%,0%,100%);fill-opacity:1;stroke-width:0.3985;stroke-linecap:butt;stroke-linejoin:miter;stroke:rgb(0%,0%,100%);stroke-opacity:1;stroke-miterlimit:10;" d="M 63.052406 1.151719 C 63.052406 2.253281 62.161781 3.143906 61.060219 3.143906 C 59.962563 3.143906 59.068031 2.253281 59.068031 1.151719 C 59.068031 0.0501562 59.962563 -0.840469 61.060219 -0.840469 C 62.161781 -0.840469 63.052406 0.0501562 63.052406 1.151719 Z M 63.052406 1.151719 " transform="matrix(1,0,0,-1,16.389,148.14)"/>
<path style="fill-rule:nonzero;fill:rgb(0%,0%,100%);fill-opacity:1;stroke-width:0.3985;stroke-linecap:butt;stroke-linejoin:miter;stroke:rgb(0%,0%,100%);stroke-opacity:1;stroke-miterlimit:10;" d="M 24.310219 126.081406 C 24.310219 127.182969 23.415688 128.073594 22.318031 128.073594 C 21.216469 128.073594 20.325844 127.182969 20.325844 126.081406 C 20.325844 124.98375 21.216469 124.089219 22.318031 124.089219 C 23.415688 124.089219 24.310219 124.98375 24.310219 126.081406 Z M 24.310219 126.081406 " transform="matrix(1,0,0,-1,16.389,148.14)"/>
<path style="fill-rule:nonzero;fill:rgb(0%,0%,100%);fill-opacity:1;stroke-width:0.3985;stroke-linecap:butt;stroke-linejoin:miter;stroke:rgb(0%,0%,100%);stroke-opacity:1;stroke-miterlimit:10;" d="M 37.51725 83.038437 C 37.51725 84.136094 36.626625 85.030625 35.525063 85.030625 C 34.4235 85.030625 33.532875 84.136094 33.532875 83.038437 C 33.532875 81.936875 34.4235 81.042344 35.525063 81.042344 C 36.626625 81.042344 37.51725 81.936875 37.51725 83.038437 Z M 37.51725 83.038437 " transform="matrix(1,0,0,-1,16.389,148.14)"/>
<path style="fill-rule:nonzero;fill:rgb(0%,0%,100%);fill-opacity:1;stroke-width:0.3985;stroke-linecap:butt;stroke-linejoin:miter;stroke:rgb(0%,0%,100%);stroke-opacity:1;stroke-miterlimit:10;" d="M 12.720375 31.573594 C 12.720375 32.675156 11.82975 33.565781 10.728188 33.565781 C 9.626625 33.565781 8.736 32.675156 8.736 31.573594 C 8.736 30.472031 9.626625 29.581406 10.728188 29.581406 C 11.82975 29.581406 12.720375 30.472031 12.720375 31.573594 Z M 12.720375 31.573594 " transform="matrix(1,0,0,-1,16.389,148.14)"/>
<path style="fill-rule:nonzero;fill:rgb(0%,0%,100%);fill-opacity:1;stroke-width:0.3985;stroke-linecap:butt;stroke-linejoin:miter;stroke:rgb(0%,0%,100%);stroke-opacity:1;stroke-miterlimit:10;" d="M 56.958656 53.3275 C 56.958656 54.429062 56.068031 55.319687 54.966469 55.319687 C 53.864906 55.319687 52.974281 54.429062 52.974281 53.3275 C 52.974281 52.229844 53.864906 51.335312 54.966469 51.335312 C 56.068031 51.335312 56.958656 52.229844 56.958656 53.3275 Z M 56.958656 53.3275 " transform="matrix(1,0,0,-1,16.389,148.14)"/>
<path style="fill-rule:nonzero;fill:rgb(0%,0%,100%);fill-opacity:1;stroke-width:0.3985;stroke-linecap:butt;stroke-linejoin:miter;stroke:rgb(0%,0%,100%);stroke-opacity:1;stroke-miterlimit:10;" d="M 7.900063 96.5775 C 7.900063 97.675156 7.009438 98.569687 5.907875 98.569687 C 4.810219 98.569687 3.915688 97.675156 3.915688 96.5775 C 3.915688 95.475937 4.810219 94.585312 5.907875 94.585312 C 7.009438 94.585312 7.900063 95.475937 7.900063 96.5775 Z M 7.900063 96.5775 " transform="matrix(1,0,0,-1,16.389,148.14)"/>
<path style="fill-rule:nonzero;fill:rgb(0%,0%,100%);fill-opacity:1;stroke-width:0.3985;stroke-linecap:butt;stroke-linejoin:miter;stroke:rgb(0%,0%,100%);stroke-opacity:1;stroke-miterlimit:10;" d="M 6.853188 22.780625 C 6.853188 23.882187 5.962563 24.772812 4.861 24.772812 C 3.763344 24.772812 2.868813 23.882187 2.868813 22.780625 C 2.868813 21.679062 3.763344 20.788437 4.861 20.788437 C 5.962563 20.788437 6.853188 21.679062 6.853188 22.780625 Z M 6.853188 22.780625 " transform="matrix(1,0,0,-1,16.389,148.14)"/>
<path style="fill-rule:nonzero;fill:rgb(0%,0%,100%);fill-opacity:1;stroke-width:0.3985;stroke-linecap:butt;stroke-linejoin:miter;stroke:rgb(0%,0%,100%);stroke-opacity:1;stroke-miterlimit:10;" d="M 23.653969 8.487656 C 23.653969 9.585312 22.763344 10.479844 21.661781 10.479844 C 20.564125 10.479844 19.669594 9.585312 19.669594 8.487656 C 19.669594 7.386094 20.564125 6.495469 21.661781 6.495469 C 22.763344 6.495469 23.653969 7.386094 23.653969 8.487656 Z M 23.653969 8.487656 " transform="matrix(1,0,0,-1,16.389,148.14)"/>
<path style="fill-rule:nonzero;fill:rgb(0%,0%,100%);fill-opacity:1;stroke-width:0.3985;stroke-linecap:butt;stroke-linejoin:miter;stroke:rgb(0%,0%,100%);stroke-opacity:1;stroke-miterlimit:10;" d="M 21.732094 4.093125 C 21.732094 5.194687 20.841469 6.085312 19.739906 6.085312 C 18.638344 6.085312 17.747719 5.194687 17.747719 4.093125 C 17.747719 2.995469 18.638344 2.100937 19.739906 2.100937 C 20.841469 2.100937 21.732094 2.995469 21.732094 4.093125 Z M 21.732094 4.093125 " transform="matrix(1,0,0,-1,16.389,148.14)"/>
<path style="fill-rule:nonzero;fill:rgb(0%,0%,100%);fill-opacity:1;stroke-width:0.3985;stroke-linecap:butt;stroke-linejoin:miter;stroke:rgb(0%,0%,100%);stroke-opacity:1;stroke-miterlimit:10;" d="M 66.302406 19.589219 C 66.302406 20.690781 65.411781 21.581406 64.310219 21.581406 C 63.212563 21.581406 62.318031 20.690781 62.318031 19.589219 C 62.318031 18.487656 63.212563 17.597031 64.310219 17.597031 C 65.411781 17.597031 66.302406 18.487656 66.302406 19.589219 Z M 66.302406 19.589219 " transform="matrix(1,0,0,-1,16.389,148.14)"/>
<path style="fill-rule:nonzero;fill:rgb(0%,0%,100%);fill-opacity:1;stroke-width:0.3985;stroke-linecap:butt;stroke-linejoin:miter;stroke:rgb(0%,0%,100%);stroke-opacity:1;stroke-miterlimit:10;" d="M 24.810219 127.319687 C 24.810219 128.42125 23.915688 129.315781 22.818031 129.315781 C 21.716469 129.315781 20.825844 128.42125 20.825844 127.319687 C 20.825844 126.222031 21.716469 125.3275 22.818031 125.3275 C 23.915688 125.3275 24.810219 126.222031 24.810219 127.319687 Z M 24.810219 127.319687 " transform="matrix(1,0,0,-1,16.389,148.14)"/>
<path style="fill-rule:nonzero;fill:rgb(0%,0%,100%);fill-opacity:1;stroke-width:0.3985;stroke-linecap:butt;stroke-linejoin:miter;stroke:rgb(0%,0%,100%);stroke-opacity:1;stroke-miterlimit:10;" d="M 10.778969 46.120469 C 10.778969 47.222031 9.884438 48.112656 8.786781 48.112656 C 7.685219 48.112656 6.794594 47.222031 6.794594 46.120469 C 6.794594 45.018906 7.685219 44.128281 8.786781 44.128281 C 9.884438 44.128281 10.778969 45.018906 10.778969 46.120469 Z M 10.778969 46.120469 " transform="matrix(1,0,0,-1,16.389,148.14)"/>
<path style="fill-rule:nonzero;fill:rgb(0%,0%,100%);fill-opacity:1;stroke-width:0.3985;stroke-linecap:butt;stroke-linejoin:miter;stroke:rgb(0%,0%,100%);stroke-opacity:1;stroke-miterlimit:10;" d="M 19.177406 35.518906 C 19.177406 36.620469 18.282875 37.515 17.185219 37.515 C 16.083656 37.515 15.189125 36.620469 15.189125 35.518906 C 15.189125 34.42125 16.083656 33.526719 17.185219 33.526719 C 18.282875 33.526719 19.177406 34.42125 19.177406 35.518906 Z M 19.177406 35.518906 " transform="matrix(1,0,0,-1,16.389,148.14)"/>
<path style="fill-rule:nonzero;fill:rgb(0%,0%,100%);fill-opacity:1;stroke-width:0.3985;stroke-linecap:butt;stroke-linejoin:miter;stroke:rgb(0%,0%,100%);stroke-opacity:1;stroke-miterlimit:10;" d="M 13.407875 104.003281 C 13.407875 105.104844 12.51725 105.995469 11.415688 105.995469 C 10.314125 105.995469 9.4235 105.104844 9.4235 104.003281 C 9.4235 102.901719 10.314125 102.011094 11.415688 102.011094 C 12.51725 102.011094 13.407875 102.901719 13.407875 104.003281 Z M 13.407875 104.003281 " transform="matrix(1,0,0,-1,16.389,148.14)"/>
<path style="fill-rule:nonzero;fill:rgb(0%,0%,100%);fill-opacity:1;stroke-width:0.3985;stroke-linecap:butt;stroke-linejoin:miter;stroke:rgb(0%,0%,100%);stroke-opacity:1;stroke-miterlimit:10;" d="M 9.189125 126.686875 C 9.189125 127.788437 8.2985 128.679062 7.196938 128.679062 C 6.099281 128.679062 5.20475 127.788437 5.20475 126.686875 C 5.20475 125.585312 6.099281 124.694687 7.196938 124.694687 C 8.2985 124.694687 9.189125 125.585312 9.189125 126.686875 Z M 9.189125 126.686875 " transform="matrix(1,0,0,-1,16.389,148.14)"/>
<path style="fill-rule:nonzero;fill:rgb(0%,0%,100%);fill-opacity:1;stroke-width:0.3985;stroke-linecap:butt;stroke-linejoin:miter;stroke:rgb(0%,0%,100%);stroke-opacity:1;stroke-miterlimit:10;" d="M 49.622719 37.507187 C 49.622719 38.60875 48.732094 39.499375 47.630531 39.499375 C 46.532875 39.499375 45.638344 38.60875 45.638344 37.507187 C 45.638344 36.405625 46.532875 35.515 47.630531 35.515 C 48.732094 35.515 49.622719 36.405625 49.622719 37.507187 Z M 49.622719 37.507187 " transform="matrix(1,0,0,-1,16.389,148.14)"/>
<path style="fill-rule:nonzero;fill:rgb(0%,0%,100%);fill-opacity:1;stroke-width:0.3985;stroke-linecap:butt;stroke-linejoin:miter;stroke:rgb(0%,0%,100%);stroke-opacity:1;stroke-miterlimit:10;" d="M 2.091469 91.968125 C 2.091469 93.069687 1.196938 93.960312 0.095375 93.960312 C -1.002281 93.960312 -1.896812 93.069687 -1.896812 91.968125 C -1.896812 90.866562 -1.002281 89.975937 0.095375 89.975937 C 1.196938 89.975937 2.091469 90.866562 2.091469 91.968125 Z M 2.091469 91.968125 " transform="matrix(1,0,0,-1,16.389,148.14)"/>
<path style="fill-rule:nonzero;fill:rgb(0%,0%,100%);fill-opacity:1;stroke-width:0.3985;stroke-linecap:butt;stroke-linejoin:miter;stroke:rgb(0%,0%,100%);stroke-opacity:1;stroke-miterlimit:10;" d="M 75.001625 129.362656 C 75.001625 130.460312 74.111 131.354844 73.009438 131.354844 C 71.907875 131.354844 71.01725 130.460312 71.01725 129.362656 C 71.01725 128.261094 71.907875 127.366562 73.009438 127.366562 C 74.111 127.366562 75.001625 128.261094 75.001625 129.362656 Z M 75.001625 129.362656 " transform="matrix(1,0,0,-1,16.389,148.14)"/>
<path style="fill-rule:nonzero;fill:rgb(0%,0%,100%);fill-opacity:1;stroke-width:0.3985;stroke-linecap:butt;stroke-linejoin:miter;stroke:rgb(0%,0%,100%);stroke-opacity:1;stroke-miterlimit:10;" d="M 163.880531 111.538437 C 163.880531 112.64 162.986 113.530625 161.888344 113.530625 C 160.786781 113.530625 159.89225 112.64 159.89225 111.538437 C 159.89225 110.436875 160.786781 109.54625 161.888344 109.54625 C 162.986 109.54625 163.880531 110.436875 163.880531 111.538437 Z M 163.880531 111.538437 " transform="matrix(1,0,0,-1,16.389,148.14)"/>
<path style="fill-rule:nonzero;fill:rgb(0%,0%,100%);fill-opacity:1;stroke-width:0.3985;stroke-linecap:butt;stroke-linejoin:miter;stroke:rgb(0%,0%,100%);stroke-opacity:1;stroke-miterlimit:10;" d="M 10.114906 115.909531 C 10.114906 117.007187 9.224281 117.901719 8.122719 117.901719 C 7.025063 117.901719 6.130531 117.007187 6.130531 115.909531 C 6.130531 114.807969 7.025063 113.913437 8.122719 113.913437 C 9.224281 113.913437 10.114906 114.807969 10.114906 115.909531 Z M 10.114906 115.909531 " transform="matrix(1,0,0,-1,16.389,148.14)"/>
<path style="fill-rule:nonzero;fill:rgb(0%,0%,100%);fill-opacity:1;stroke-width:0.3985;stroke-linecap:butt;stroke-linejoin:miter;stroke:rgb(0%,0%,100%);stroke-opacity:1;stroke-miterlimit:10;" d="M 44.146156 17.710312 C 44.146156 18.807969 43.251625 19.7025 42.153969 19.7025 C 41.052406 19.7025 40.157875 18.807969 40.157875 17.710312 C 40.157875 16.60875 41.052406 15.718125 42.153969 15.718125 C 43.251625 15.718125 44.146156 16.60875 44.146156 17.710312 Z M 44.146156 17.710312 " transform="matrix(1,0,0,-1,16.389,148.14)"/>
<path style="fill-rule:nonzero;fill:rgb(0%,0%,100%);fill-opacity:1;stroke-width:0.3985;stroke-linecap:butt;stroke-linejoin:miter;stroke:rgb(0%,0%,100%);stroke-opacity:1;stroke-miterlimit:10;" d="M 24.193031 46.0775 C 24.193031 47.179062 23.2985 48.069687 22.200844 48.069687 C 21.099281 48.069687 20.208656 47.179062 20.208656 46.0775 C 20.208656 44.975937 21.099281 44.085312 22.200844 44.085312 C 23.2985 44.085312 24.193031 44.975937 24.193031 46.0775 Z M 24.193031 46.0775 " transform="matrix(1,0,0,-1,16.389,148.14)"/>
<path style="fill-rule:nonzero;fill:rgb(0%,0%,100%);fill-opacity:1;stroke-width:0.3985;stroke-linecap:butt;stroke-linejoin:miter;stroke:rgb(0%,0%,100%);stroke-opacity:1;stroke-miterlimit:10;" d="M 20.044594 29.167344 C 20.044594 30.268906 19.153969 31.159531 18.052406 31.159531 C 16.950844 31.159531 16.060219 30.268906 16.060219 29.167344 C 16.060219 28.065781 16.950844 27.175156 18.052406 27.175156 C 19.153969 27.175156 20.044594 28.065781 20.044594 29.167344 Z M 20.044594 29.167344 " transform="matrix(1,0,0,-1,16.389,148.14)"/>
<path style="fill-rule:nonzero;fill:rgb(0%,0%,100%);fill-opacity:1;stroke-width:0.3985;stroke-linecap:butt;stroke-linejoin:miter;stroke:rgb(0%,0%,100%);stroke-opacity:1;stroke-miterlimit:10;" d="M 9.361 59.679062 C 9.361 60.780625 8.470375 61.675156 7.368813 61.675156 C 6.26725 61.675156 5.376625 60.780625 5.376625 59.679062 C 5.376625 58.581406 6.26725 57.686875 7.368813 57.686875 C 8.470375 57.686875 9.361 58.581406 9.361 59.679062 Z M 9.361 59.679062 " transform="matrix(1,0,0,-1,16.389,148.14)"/>
<path style="fill-rule:nonzero;fill:rgb(0%,0%,100%);fill-opacity:1;stroke-width:0.3985;stroke-linecap:butt;stroke-linejoin:miter;stroke:rgb(0%,0%,100%);stroke-opacity:1;stroke-miterlimit:10;" d="M 17.607094 31.89 C 17.607094 32.987656 16.716469 33.882187 15.614906 33.882187 C 14.51725 33.882187 13.622719 32.987656 13.622719 31.89 C 13.622719 30.788437 14.51725 29.893906 15.614906 29.893906 C 16.716469 29.893906 17.607094 30.788437 17.607094 31.89 Z M 17.607094 31.89 " transform="matrix(1,0,0,-1,16.389,148.14)"/>
<path style="fill-rule:nonzero;fill:rgb(0%,0%,100%);fill-opacity:1;stroke-width:0.3985;stroke-linecap:butt;stroke-linejoin:miter;stroke:rgb(0%,0%,100%);stroke-opacity:1;stroke-miterlimit:10;" d="M 77.310219 71.038437 C 77.310219 72.14 76.419594 73.030625 75.318031 73.030625 C 74.216469 73.030625 73.325844 72.14 73.325844 71.038437 C 73.325844 69.936875 74.216469 69.04625 75.318031 69.04625 C 76.419594 69.04625 77.310219 69.936875 77.310219 71.038437 Z M 77.310219 71.038437 " transform="matrix(1,0,0,-1,16.389,148.14)"/>
<path style="fill-rule:nonzero;fill:rgb(0%,0%,100%);fill-opacity:1;stroke-width:0.3985;stroke-linecap:butt;stroke-linejoin:miter;stroke:rgb(0%,0%,100%);stroke-opacity:1;stroke-miterlimit:10;" d="M 29.696938 133.116562 C 29.696938 134.218125 28.806313 135.10875 27.70475 135.10875 C 26.603188 135.10875 25.712563 134.218125 25.712563 133.116562 C 25.712563 132.015 26.603188 131.124375 27.70475 131.124375 C 28.806313 131.124375 29.696938 132.015 29.696938 133.116562 Z M 29.696938 133.116562 " transform="matrix(1,0,0,-1,16.389,148.14)"/>
<path style="fill-rule:nonzero;fill:rgb(0%,0%,100%);fill-opacity:1;stroke-width:0.3985;stroke-linecap:butt;stroke-linejoin:miter;stroke:rgb(0%,0%,100%);stroke-opacity:1;stroke-miterlimit:10;" d="M 1.993813 55.694687 C 1.993813 56.792344 1.099281 57.686875 0.001625 57.686875 C -1.099937 57.686875 -1.994469 56.792344 -1.994469 55.694687 C -1.994469 54.593125 -1.099937 53.7025 0.001625 53.7025 C 1.099281 53.7025 1.993813 54.593125 1.993813 55.694687 Z M 1.993813 55.694687 " transform="matrix(1,0,0,-1,16.389,148.14)"/>
<path style="fill-rule:nonzero;fill:rgb(0%,0%,100%);fill-opacity:1;stroke-width:0.3985;stroke-linecap:butt;stroke-linejoin:miter;stroke:rgb(0%,0%,100%);stroke-opacity:1;stroke-miterlimit:10;" d="M 142.544594 43.159531 C 142.544594 44.261094 141.653969 45.151719 140.552406 45.151719 C 139.45475 45.151719 138.560219 44.261094 138.560219 43.159531 C 138.560219 42.057969 139.45475 41.167344 140.552406 41.167344 C 141.653969 41.167344 142.544594 42.057969 142.544594 43.159531 Z M 142.544594 43.159531 " transform="matrix(1,0,0,-1,16.389,148.14)"/>
<path style="fill-rule:nonzero;fill:rgb(0%,0%,100%);fill-opacity:1;stroke-width:0.3985;stroke-linecap:butt;stroke-linejoin:miter;stroke:rgb(0%,0%,100%);stroke-opacity:1;stroke-miterlimit:10;" d="M 66.310219 126.304062 C 66.310219 127.405625 65.415688 128.29625 64.318031 128.29625 C 63.216469 128.29625 62.325844 127.405625 62.325844 126.304062 C 62.325844 125.206406 63.216469 124.311875 64.318031 124.311875 C 65.415688 124.311875 66.310219 125.206406 66.310219 126.304062 Z M 66.310219 126.304062 " transform="matrix(1,0,0,-1,16.389,148.14)"/>
<path style="fill-rule:nonzero;fill:rgb(0%,0%,100%);fill-opacity:1;stroke-width:0.3985;stroke-linecap:butt;stroke-linejoin:miter;stroke:rgb(0%,0%,100%);stroke-opacity:1;stroke-miterlimit:10;" d="M 45.661781 22.831406 C 45.661781 23.932969 44.76725 24.823594 43.669594 24.823594 C 42.568031 24.823594 41.677406 23.932969 41.677406 22.831406 C 41.677406 21.73375 42.568031 20.839219 43.669594 20.839219 C 44.76725 20.839219 45.661781 21.73375 45.661781 22.831406 Z M 45.661781 22.831406 " transform="matrix(1,0,0,-1,16.389,148.14)"/>
<path style="fill-rule:nonzero;fill:rgb(0%,0%,100%);fill-opacity:1;stroke-width:0.3985;stroke-linecap:butt;stroke-linejoin:miter;stroke:rgb(0%,0%,100%);stroke-opacity:1;stroke-miterlimit:10;" d="M 17.161781 124.167344 C 17.161781 125.268906 16.26725 126.159531 15.169594 126.159531 C 14.068031 126.159531 13.177406 125.268906 13.177406 124.167344 C 13.177406 123.069687 14.068031 122.175156 15.169594 122.175156 C 16.26725 122.175156 17.161781 123.069687 17.161781 124.167344 Z M 17.161781 124.167344 " transform="matrix(1,0,0,-1,16.389,148.14)"/>
<path style="fill-rule:nonzero;fill:rgb(0%,0%,100%);fill-opacity:1;stroke-width:0.3985;stroke-linecap:butt;stroke-linejoin:miter;stroke:rgb(0%,0%,100%);stroke-opacity:1;stroke-miterlimit:10;" d="M 104.657875 114.901719 C 104.657875 116.003281 103.763344 116.893906 102.665688 116.893906 C 101.564125 116.893906 100.6735 116.003281 100.6735 114.901719 C 100.6735 113.804062 101.564125 112.909531 102.665688 112.909531 C 103.763344 112.909531 104.657875 113.804062 104.657875 114.901719 Z M 104.657875 114.901719 " transform="matrix(1,0,0,-1,16.389,148.14)"/>
</g>
</svg>
